<svg xmlns="http://www.w3.org/2000/svg" xmlns:xlink="http://www.w3.org/1999/xlink" width="840" zoomAndPan="magnify" viewBox="0 0 630 390.749986" height="521" preserveAspectRatio="xMidYMid meet" version="1.0"><defs><clipPath id="85af7251e3"><path d="M 108.882812 52.457031 L 521 52.457031 L 521 307.992188 L 108.882812 307.992188 Z M 108.882812 52.457031 " clip-rule="nonzero"/></clipPath><clipPath id="b0d3d6a0dd"><path d="M 108.882812 52.457031 L 521 52.457031 L 521 307.992188 L 108.882812 307.992188 Z M 108.882812 52.457031 " clip-rule="nonzero"/></clipPath></defs><g clip-path="url(#85af7251e3)"><path fill="#b91c1c" d="M 399.246094 298.035156 C 385.738281 298.664062 366.0625 299.648438 346.382812 300.449219 C 340.582031 300.6875 334.835938 299.5 329.058594 299.003906 C 325.96875 298.738281 322.890625 298.3125 319.804688 298.003906 C 313.707031 297.402344 308.824219 294.566406 304.953125 289.914062 C 304.324219 289.160156 303.742188 288.78125 302.707031 288.824219 C 296.011719 289.09375 289.3125 289.34375 282.613281 289.484375 C 281.023438 289.519531 280.394531 290.027344 280.074219 291.613281 C 278.617188 298.824219 274.433594 302.386719 267.144531 303.050781 C 249.816406 304.636719 232.488281 306.257812 215.164062 307.902344 C 209.078125 308.484375 203.097656 307.332031 197.085938 306.835938 C 181.617188 305.554688 166.167969 304.023438 150.703125 302.679688 C 138.003906 301.574219 125.292969 300.617188 112.589844 299.554688 C 108.871094 299.246094 108.625 298.734375 109.277344 295.101562 C 110.023438 290.960938 111.800781 287.589844 114.796875 284.496094 C 129.648438 269.179688 144.097656 253.484375 158.371094 237.625 C 159.765625 236.074219 161.167969 235.53125 163.277344 235.679688 C 170.691406 236.210938 178.125 236.496094 185.554688 236.890625 C 186.496094 236.941406 187.097656 236.925781 187.492188 235.710938 C 188.796875 231.671875 188.984375 231.511719 193.195312 231.617188 C 195.085938 231.664062 194.867188 230.484375 194.960938 229.445312 C 195.6875 221.46875 196.460938 213.5 197.03125 205.511719 C 197.300781 201.707031 198.117188 198.117188 199.703125 194.65625 C 204.25 184.730469 208.859375 174.828125 213.234375 164.824219 C 215.433594 159.796875 218.8125 156.730469 224.28125 155.515625 C 232.074219 153.789062 239.757812 151.570312 247.496094 149.589844 C 248.414062 149.351562 249.242188 149.171875 249.203125 147.949219 C 249.167969 146.832031 250.050781 145.679688 248.542969 144.710938 C 244.753906 142.28125 243.527344 138.628906 244.140625 134.3125 C 245.378906 125.582031 246.695312 116.863281 247.949219 108.136719 C 248.460938 104.59375 250.449219 102.328125 253.839844 101.398438 C 255.363281 100.980469 255.832031 100.191406 256.015625 98.683594 C 256.6875 93.089844 257.523438 87.515625 258.324219 81.941406 C 258.503906 80.6875 258.523438 79.707031 257.265625 78.789062 C 255.582031 77.558594 254.628906 75.722656 254.425781 73.5625 C 254.152344 70.636719 253.746094 67.71875 253.566406 64.785156 C 253.316406 60.757812 254.742188 58.945312 258.660156 58.445312 C 265.789062 57.527344 272.933594 56.730469 280.070312 55.910156 C 289.808594 54.789062 299.546875 53.691406 309.285156 52.59375 C 314.285156 52.027344 319.242188 52.878906 324.210938 53.117188 C 337.355469 53.738281 350.484375 54.570312 363.621094 55.328125 C 372.027344 55.8125 380.433594 56.230469 388.828125 56.832031 C 400.707031 57.6875 410.054688 66.464844 411.949219 78.246094 C 413.753906 89.449219 415.660156 100.636719 417.472656 111.835938 C 417.71875 113.359375 418.039062 114.0625 419.910156 113.609375 C 424.902344 112.398438 430.042969 111.75 434.960938 110.3125 C 438.097656 109.398438 441.121094 108.972656 444.324219 109.214844 C 446.984375 109.417969 449.289062 110.277344 450.792969 112.589844 C 451.410156 113.542969 452.109375 113.617188 453.066406 113.316406 C 458.417969 111.632812 463.914062 110.398438 469.335938 109.085938 C 477.953125 107 486.394531 108.378906 486.585938 120.910156 C 486.65625 125.488281 486.671875 130.066406 486.554688 134.640625 C 486.515625 136.226562 486.894531 136.722656 488.535156 136.753906 C 494.386719 136.859375 494.421875 136.972656 494.21875 142.746094 C 494.128906 145.273438 493.285156 148.175781 494.238281 150.234375 C 495.207031 152.320312 498.539062 152.464844 500.6875 153.75 C 502.15625 154.632812 503.710938 155.367188 505.1875 156.234375 C 509.773438 158.925781 512.058594 162.742188 512.136719 168.265625 C 512.429688 188.535156 513.515625 208.785156 513.582031 229.0625 C 513.585938 230.507812 513.949219 231.003906 515.480469 231.082031 C 519.882812 231.3125 521 232.625 520.96875 237.058594 C 520.949219 239.34375 520.796875 241.640625 520.894531 243.921875 C 521.046875 247.378906 519.910156 250.152344 517.074219 252.195312 C 516.679688 252.480469 516.289062 252.789062 515.960938 253.152344 C 510.042969 259.691406 501.773438 261.832031 493.988281 264.839844 C 492.292969 265.496094 491.753906 266.269531 491.757812 268.132812 C 491.792969 283.90625 481.355469 294.644531 465.683594 295.261719 C 445.59375 296.054688 425.503906 296.933594 399.246094 298.035156 Z M 499.257812 158.449219 C 499.257812 158.328125 499.257812 158.203125 499.261719 158.082031 C 499.152344 158.125 499.046875 158.164062 498.941406 158.207031 C 499.066406 158.273438 499.191406 158.339844 499.316406 158.402344 C 499.261719 159.148438 499.84375 159.574219 500.226562 160.058594 C 502.484375 162.925781 503.441406 166.097656 503.410156 169.804688 C 503.359375 175.757812 503.792969 181.710938 503.882812 187.667969 C 503.90625 189.480469 504.632812 189.691406 506.21875 189.683594 C 507.929688 189.671875 508.191406 189.027344 508.136719 187.519531 C 507.910156 181.15625 507.773438 174.792969 507.648438 168.429688 C 507.542969 163.191406 504.621094 159.679688 499.257812 158.449219 Z M 393.945312 127.972656 C 395.808594 127.503906 397.542969 127.117188 399.25 126.628906 C 401.777344 125.902344 405.496094 126.3125 406.519531 124.25 C 407.519531 122.234375 406.257812 119.039062 405.839844 116.382812 C 403.980469 104.539062 402.042969 92.703125 400.179688 80.855469 C 399.179688 74.472656 394.167969 69.519531 387.625 69.097656 C 368.714844 67.878906 349.792969 66.84375 330.878906 65.664062 C 329.113281 65.554688 328.753906 66.167969 328.566406 67.761719 C 326.703125 83.570312 324.75 99.371094 322.820312 115.171875 C 321.625 124.976562 320.421875 134.777344 319.222656 144.582031 C 319.117188 145.46875 318.738281 146.398438 320.410156 145.988281 C 329.351562 143.785156 338.3125 141.671875 347.261719 139.507812 C 347.933594 139.347656 348.710938 139.339844 348.898438 138.347656 C 349.476562 135.3125 350.511719 132.355469 350.542969 129.222656 C 350.597656 123.753906 351.957031 118.570312 354.105469 113.589844 C 355.582031 110.175781 358.117188 107.703125 361.859375 107.125 C 369.742188 105.90625 377.613281 104.449219 385.660156 106.242188 C 390.574219 107.335938 392.726562 109.117188 393.929688 113.980469 C 394.40625 115.914062 394.460938 117.863281 394.402344 119.816406 C 394.324219 122.492188 394.109375 125.160156 393.945312 127.972656 Z M 482.15625 132 C 482.121094 132 482.085938 132 482.050781 132 C 482.050781 127.828125 482.125 123.660156 482.03125 119.492188 C 481.953125 116.0625 480.601562 113.675781 478.261719 113.289062 C 470.949219 112.089844 467.214844 113.453125 465.601562 120.664062 C 464.316406 126.398438 462.992188 132.136719 462.042969 137.929688 C 459.960938 150.597656 456.550781 162.726562 449.300781 173.554688 C 446.949219 177.066406 444.914062 180.820312 443.046875 184.617188 C 440.402344 189.992188 440.640625 195.148438 444.953125 199.773438 C 446.84375 201.804688 448.566406 203.992188 450.292969 206.167969 C 450.851562 206.875 451.511719 207.203125 452.332031 207.351562 C 460.167969 208.765625 465.820312 213.242188 469.855469 219.925781 C 471.753906 223.070312 473.597656 226.246094 475.328125 229.480469 C 475.996094 230.730469 476.753906 231.175781 478.175781 231.148438 C 484.878906 231.023438 491.585938 230.9375 498.285156 231.03125 C 500.320312 231.058594 500.867188 230.542969 500.792969 228.484375 C 500.085938 208.386719 499.480469 188.285156 498.859375 168.1875 C 498.828125 167.105469 498.71875 166.054688 498.117188 165.136719 C 494.925781 160.289062 491.773438 155.375 486.75 152.167969 C 483.617188 150.171875 482.203125 147.363281 482.164062 143.769531 C 482.125 139.847656 482.15625 135.921875 482.15625 132 Z M 312.542969 90.019531 C 312.585938 89.351562 312.5 88.777344 312.101562 88.167969 C 308.136719 82.09375 304.175781 76.007812 300.292969 69.878906 C 299.546875 68.695312 298.675781 68.527344 297.433594 68.675781 C 292.8125 69.222656 288.1875 69.71875 283.554688 70.183594 C 282.511719 70.289062 281.84375 70.597656 281.257812 71.613281 C 277.519531 78.113281 273.703125 84.570312 269.835938 90.996094 C 269.101562 92.214844 268.613281 93.441406 268.425781 94.835938 C 266.90625 106.164062 265.410156 117.492188 263.832031 128.808594 C 261.308594 146.917969 258.789062 165.027344 256.121094 183.113281 C 255.585938 186.738281 257.019531 189.242188 259.429688 191.535156 C 260.449219 192.503906 261.101562 192.546875 261.65625 191.019531 C 262.800781 187.882812 264.300781 184.863281 265.285156 181.683594 C 266.398438 178.078125 268.402344 176.0625 272.332031 176.367188 C 272.875 176.410156 273.539062 176.546875 273.761719 175.796875 C 273.976562 175.078125 273.367188 174.8125 272.9375 174.464844 C 271.148438 173.007812 269.921875 171.230469 269.972656 168.832031 C 270.136719 161.316406 275.554688 155.117188 283 153.964844 C 289.277344 152.992188 295.601562 152.460938 301.8125 150.894531 C 304.503906 150.214844 305.503906 149.132812 305.417969 146.648438 C 305.382812 145.609375 306.222656 144.414062 304.816406 143.570312 C 300.292969 140.855469 299.546875 136.609375 300.230469 131.851562 C 301.460938 123.289062 302.78125 114.738281 303.949219 106.167969 C 304.453125 102.453125 306.367188 100.035156 309.832031 98.773438 C 310.59375 98.496094 311.347656 98.394531 311.472656 97.285156 C 311.746094 94.855469 312.175781 92.441406 312.542969 90.019531 Z M 355.378906 168.238281 C 378.632812 162.769531 401.367188 157.421875 424.558594 151.96875 C 421.597656 150.597656 419.203125 149.210938 416.519531 148.460938 C 414.929688 148.019531 413.75 147.199219 414.429688 145.320312 C 415.136719 143.355469 416.621094 143.789062 418.070312 144.359375 C 422.171875 145.96875 426.15625 147.832031 430.050781 149.882812 C 430.980469 150.371094 431.761719 150.4375 432.800781 150.171875 C 438.246094 148.78125 443.667969 147.09375 449.210938 146.324219 C 454.460938 145.597656 456.875 143.484375 457.53125 137.988281 C 458.421875 130.535156 460.410156 123.21875 461.925781 115.84375 C 461.765625 115.8125 461.683594 115.769531 461.617188 115.785156 C 428 124.144531 394.371094 132.472656 360.765625 140.886719 C 337.925781 146.601562 314.925781 151.652344 292.230469 157.945312 C 288.859375 158.878906 286.324219 160.640625 284.765625 163.738281 C 283.707031 165.84375 282.789062 168.023438 281.785156 170.15625 C 281.484375 170.792969 281.171875 171.355469 282.117188 171.71875 C 283.289062 172.167969 283.933594 173.25 284.863281 174.195312 C 286.261719 171.144531 287.582031 168.1875 288.976562 165.261719 C 290.890625 161.246094 294.023438 158.789062 298.410156 157.851562 C 303.765625 156.710938 309.191406 156.054688 314.59375 155.226562 C 326.128906 153.453125 337.652344 151.605469 349.203125 149.925781 C 356.210938 148.90625 360.246094 153.917969 358.015625 160.679688 C 357.234375 163.054688 356.371094 165.402344 355.378906 168.238281 Z M 272.078125 255.449219 C 272.074219 256.777344 273.152344 259.042969 273.578125 261.4375 C 273.898438 263.246094 274.375 264.429688 276.554688 263.3125 C 277.667969 262.738281 278.984375 262.808594 280.160156 263.175781 C 281.660156 263.640625 281.910156 262.992188 282.0625 261.679688 C 283.136719 252.183594 284.210938 242.691406 285.441406 233.214844 C 286.257812 226.914062 286.261719 220.429688 288.605469 214.429688 C 294.5625 199.175781 305.738281 189.316406 321.011719 183.925781 C 327.84375 181.511719 335.050781 182.0625 342.121094 181.628906 C 345.671875 181.414062 346.429688 180.851562 347.566406 177.492188 C 349.347656 172.246094 351 166.945312 353.011719 161.785156 C 355.972656 154.191406 353.046875 153.707031 347.050781 154.667969 C 331.898438 157.105469 316.753906 159.59375 301.5625 161.765625 C 296.984375 162.417969 294.160156 164.554688 292.34375 168.652344 C 287.519531 179.527344 282.558594 190.339844 277.710938 201.203125 C 277.1875 202.375 276.871094 203.699219 276.75 204.976562 C 275.199219 221.410156 273.699219 237.847656 272.078125 255.449219 Z M 248.667969 251.886719 C 246.417969 251.773438 244.882812 251.6875 243.347656 251.625 C 236.65625 251.347656 229.964844 251.066406 223.273438 250.8125 C 205.722656 250.140625 188.171875 249.492188 170.625 248.796875 C 169.195312 248.742188 168.597656 248.828125 169.03125 250.585938 C 170.167969 255.175781 171.164062 259.804688 172.027344 264.453125 C 173.292969 271.246094 175.691406 277.871094 175.203125 284.933594 C 175.117188 286.136719 176 285.921875 176.683594 285.980469 C 189.210938 287.082031 201.738281 288.167969 214.261719 289.296875 C 215.34375 289.394531 216.074219 289.140625 216.789062 288.28125 C 218.78125 285.902344 220.882812 283.617188 222.929688 281.28125 C 231.367188 271.652344 239.800781 262.015625 248.667969 251.886719 Z M 364.988281 277.253906 C 365.804688 277.253906 366.371094 277.265625 366.933594 277.25 C 392.664062 276.449219 418.394531 275.640625 444.125 274.84375 C 445.757812 274.792969 447.457031 274.523438 449.007812 274.871094 C 452.113281 275.574219 455.191406 275.03125 458.273438 275.121094 C 459.265625 275.152344 459.640625 274.820312 459.121094 273.832031 C 458.820312 273.257812 458.566406 272.648438 458.367188 272.03125 C 456.898438 267.472656 459.128906 262.71875 463.304688 261.46875 C 467.925781 260.085938 472.304688 262.53125 473.59375 267.207031 C 475.097656 272.679688 471.097656 277.75 465.179688 277.667969 C 460.957031 277.609375 456.757812 277.804688 452.5625 278.152344 C 452.53125 278.898438 453.011719 279.152344 453.339844 279.46875 C 457.625 283.597656 463.421875 284.628906 468.460938 282.183594 C 473.515625 279.730469 476.65625 273.957031 476.058594 268.210938 C 475.3125 261.046875 471.039062 257.285156 463.824219 257.476562 C 459.003906 257.605469 454.1875 257.828125 449.367188 257.921875 C 426.484375 258.367188 403.601562 258.753906 380.722656 259.257812 C 378.15625 259.3125 376.855469 258.441406 376.171875 255.960938 C 374.855469 251.167969 373.257812 246.457031 371.859375 241.6875 C 371.539062 240.609375 371.285156 240.234375 370.046875 240.660156 C 363.402344 242.957031 356.71875 245.148438 349.84375 247.441406 C 363.589844 251.152344 369.015625 264.910156 364.988281 277.253906 Z M 406.515625 194.429688 C 407.359375 192.050781 406.523438 191.023438 403.984375 191.03125 C 402.371094 191.035156 400.761719 190.550781 399.148438 190.308594 C 387.847656 188.613281 376.542969 186.933594 365.246094 185.21875 C 363.902344 185.011719 362.332031 185.015625 361.621094 183.558594 C 361.050781 182.386719 360.054688 182.234375 359.015625 182.074219 C 356.917969 181.753906 354.800781 181.542969 352.71875 181.152344 C 351.46875 180.917969 350.808594 181.273438 350.242188 182.425781 C 349.101562 184.75 347.085938 185.886719 344.519531 185.984375 C 341.089844 186.117188 337.660156 186.273438 334.226562 186.285156 C 327.722656 186.3125 321.667969 188.003906 315.878906 190.878906 C 314.734375 191.445312 314.152344 192.136719 314.023438 193.441406 C 313.351562 200.433594 312.6875 207.429688 311.824219 214.398438 C 311.558594 216.570312 312.292969 216.621094 314.019531 216.273438 C 343.765625 210.289062 373.515625 204.3125 403.289062 198.441406 C 405.789062 197.949219 407.261719 197.238281 406.515625 194.429688 Z M 480.382812 271.664062 C 481.347656 271.59375 481.167969 270.960938 481.25 270.546875 C 482.132812 266.050781 481.402344 261.757812 479.417969 257.691406 C 477.628906 254.035156 475.785156 250.398438 473.8125 246.839844 C 469.816406 239.648438 465.824219 232.445312 461.621094 225.375 C 457.691406 218.757812 451.660156 215.875 445.1875 217.121094 C 454.097656 224.539062 455.953125 233.550781 450.289062 241.890625 C 445.777344 248.535156 437.347656 250.640625 430.421875 246.847656 C 422.355469 242.433594 420.140625 233.1875 424.765625 222.425781 C 422.902344 223.042969 421.234375 223.589844 419.570312 224.148438 C 405.519531 228.871094 391.480469 233.621094 377.410156 238.285156 C 375.902344 238.785156 375.621094 239.292969 376.15625 240.808594 C 377.5625 244.804688 378.8125 248.859375 380 252.925781 C 380.351562 254.125 380.746094 254.65625 382.121094 254.628906 C 401.5625 254.238281 421 253.90625 440.441406 253.574219 C 441.195312 253.558594 441.78125 253.503906 442.320312 252.789062 C 443.734375 250.902344 452.015625 249.570312 453.945312 250.828125 C 454.144531 250.957031 454.382812 251.144531 454.441406 251.351562 C 455.066406 253.507812 456.78125 253.179688 458.394531 253.144531 C 460.601562 253.097656 462.808594 253.085938 465.011719 253.070312 C 472.257812 253.011719 477.617188 256.96875 479.765625 263.933594 C 480.542969 266.449219 480.871094 269.007812 480.382812 271.664062 Z M 444.332031 205.96875 C 442.804688 204.0625 441.167969 202.265625 439.835938 200.265625 C 439.007812 199.019531 438.234375 198.808594 436.851562 199.117188 C 431.039062 200.40625 425.191406 201.539062 419.375 202.816406 C 417.746094 203.171875 416.5625 202.953125 416.21875 201.171875 C 415.976562 199.910156 415.378906 200.242188 414.496094 200.429688 C 403.328125 202.808594 392.160156 205.191406 380.964844 207.445312 C 356.8125 212.3125 332.648438 217.121094 308.476562 221.894531 C 307.078125 222.171875 306.507812 222.65625 306.234375 224.113281 C 305.035156 230.460938 304.453125 236.890625 303.667969 243.292969 C 303.332031 246.023438 302.753906 248.785156 303.214844 252.074219 C 307.585938 244.664062 314.164062 241.15625 321.566406 238.773438 C 351.5 229.121094 381.464844 219.558594 411.335938 209.703125 C 420.367188 206.726562 429.324219 204.46875 438.90625 205.929688 C 440.632812 206.195312 442.433594 205.96875 444.332031 205.96875 Z M 227.027344 298.632812 C 227.019531 301.882812 227.023438 301.925781 230.046875 301.652344 C 242.25 300.550781 254.433594 299.089844 266.660156 298.429688 C 273.21875 298.074219 276.949219 291.84375 275.515625 286.488281 C 271.78125 272.550781 267.917969 258.648438 264.929688 244.527344 C 264.6875 243.378906 264.246094 243.332031 263.273438 243.492188 C 262.105469 243.679688 261.167969 244.003906 260.359375 244.984375 C 246.367188 261.9375 231.722656 278.328125 217.242188 294.859375 C 216.164062 296.09375 215.21875 297.382812 214.714844 298.996094 C 213.300781 303.542969 213.269531 303.53125 218.082031 302.976562 C 218.8125 302.890625 219.550781 302.675781 220.269531 302.738281 C 221.898438 302.878906 222.476562 302.136719 222.320312 300.617188 C 221.867188 296.191406 223.671875 292.726562 226.871094 289.835938 C 227.230469 289.511719 227.5 289.085938 227.820312 288.714844 C 238.542969 276.382812 249.261719 264.050781 259.980469 251.71875 C 260.703125 250.890625 261.496094 250.039062 262.679688 250.738281 C 263.71875 251.351562 264.34375 252.433594 264.089844 253.625 C 263.933594 254.359375 263.277344 255.019531 262.746094 255.628906 C 251.359375 268.679688 239.96875 281.734375 228.535156 294.742188 C 227.441406 295.984375 226.613281 297.15625 227.027344 298.632812 Z M 122.519531 291.984375 C 123.898438 291.90625 124.621094 291.910156 125.332031 291.820312 C 138.769531 290.132812 152.207031 288.476562 165.632812 286.714844 C 170.679688 286.054688 171.191406 285.195312 170.414062 279.992188 C 170.386719 279.832031 170.335938 279.675781 170.3125 279.511719 C 168.894531 270.242188 166.492188 261.167969 164.707031 251.96875 C 164.496094 250.890625 164.730469 249.308594 163.632812 248.898438 C 162.285156 248.394531 161.578125 249.953125 160.792969 250.789062 C 151.636719 260.558594 142.519531 270.363281 133.40625 280.171875 C 129.917969 283.925781 126.457031 287.710938 122.519531 291.984375 Z M 329.769531 270.582031 C 329.867188 271.800781 329.863281 273.039062 330.089844 274.234375 C 331.292969 280.578125 334.402344 285.554688 340.777344 287.679688 C 346.609375 289.625 351.847656 288.015625 355.972656 283.652344 C 361.867188 277.414062 363.484375 270 360.429688 261.933594 C 356.113281 250.527344 341.964844 248.414062 334.339844 257.910156 C 331.375 261.605469 329.953125 265.863281 329.769531 270.582031 Z M 353.847656 137.578125 C 354.101562 137.675781 354.265625 137.804688 354.390625 137.773438 C 362.472656 135.835938 370.546875 133.863281 378.640625 131.964844 C 379.804688 131.691406 379.929688 131.035156 380.027344 130.054688 C 380.289062 127.457031 380.679688 124.875 380.984375 122.28125 C 381.324219 119.363281 382.042969 116.480469 381.945312 113.523438 C 381.84375 110.535156 380.914062 109.640625 378.0625 109.875 C 373.832031 110.226562 369.621094 110.855469 365.386719 111.109375 C 360.984375 111.371094 358.546875 113.722656 357.390625 117.757812 C 357.121094 118.695312 356.839844 119.632812 356.507812 120.550781 C 354.527344 126.070312 355.535156 132.035156 353.847656 137.578125 Z M 131.320312 295.78125 C 131.292969 295.902344 131.265625 296.023438 131.238281 296.144531 C 135.386719 296.515625 139.535156 296.882812 143.683594 297.257812 C 155.890625 298.359375 168.101562 299.445312 180.304688 300.566406 C 189.171875 301.382812 198.039062 302.253906 206.90625 303.066406 C 207.683594 303.140625 208.691406 303.6875 209.015625 302.222656 C 209.660156 299.328125 210.566406 296.503906 211.910156 293.625 C 202.519531 292.839844 193.410156 292.070312 184.300781 291.320312 C 178.296875 290.824219 172.308594 289.917969 166.28125 291.335938 C 163.90625 291.890625 161.433594 292.027344 159.003906 292.328125 C 149.773438 293.484375 140.546875 294.628906 131.320312 295.78125 Z M 295.9375 276.589844 C 297.769531 277.140625 298.429688 276.554688 298.152344 274.21875 C 297.296875 267.054688 297.914062 259.851562 298.28125 252.695312 C 298.777344 243.164062 300.082031 233.691406 301.644531 224.273438 C 301.898438 222.746094 301.789062 222.113281 300.011719 222.191406 C 297.816406 222.292969 295.585938 222.242188 293.414062 221.929688 C 291.597656 221.671875 291.210938 222.402344 291.027344 223.960938 C 289.523438 236.765625 287.984375 249.566406 286.382812 262.359375 C 286.140625 264.300781 286.207031 265.90625 287.78125 267.390625 C 288.964844 268.507812 289.296875 270.222656 289.726562 271.808594 C 290.113281 273.242188 288.9375 275.222656 290.355469 276.035156 C 291.570312 276.730469 293.375 276.394531 294.921875 276.515625 C 295.167969 276.53125 295.410156 276.550781 295.9375 276.589844 Z M 436.097656 191.855469 C 437.023438 192.246094 437.125 191.578125 437.117188 190.4375 C 437.109375 189.144531 437.152344 187.753906 437.613281 186.578125 C 438.308594 184.824219 437.625 184.574219 436.097656 184.335938 C 414.734375 180.976562 393.378906 177.554688 372.019531 174.164062 C 370.570312 173.933594 368.800781 173.199219 367.726562 173.753906 C 366.378906 174.453125 367.191406 176.550781 366.792969 177.992188 C 366.703125 178.308594 366.648438 178.632812 366.53125 178.933594 C 365.992188 180.324219 366.304688 180.855469 367.9375 181.097656 C 379.570312 182.808594 391.1875 184.628906 402.796875 186.46875 C 413.761719 188.207031 424.71875 190.011719 436.097656 191.855469 Z M 478.773438 235.539062 C 480.230469 238.105469 481.394531 240.035156 482.441406 242.027344 C 485.53125 247.917969 489.410156 253.445312 490.9375 260.0625 C 491.28125 261.550781 491.957031 260.820312 492.683594 260.535156 C 496.007812 259.21875 499.308594 257.828125 502.691406 256.683594 C 503.964844 256.253906 504.296875 255.707031 504.28125 254.460938 C 504.222656 250.222656 504.328125 245.980469 504.28125 241.742188 C 504.257812 239.730469 505.226562 236.992188 503.921875 235.914062 C 502.691406 234.898438 500.046875 235.550781 498.027344 235.546875 C 491.78125 235.523438 485.535156 235.539062 478.773438 235.539062 Z M 237.039062 222.148438 C 237.039062 222.257812 237.039062 222.371094 237.039062 222.480469 C 240.46875 222.480469 243.898438 222.5 247.328125 222.46875 C 248.035156 222.460938 248.792969 222.890625 249.253906 221.644531 C 251.089844 216.679688 253.03125 211.75 255.117188 206.886719 C 255.878906 205.109375 255.207031 205.03125 253.773438 205.039062 C 246.503906 205.082031 239.234375 205.101562 231.960938 205.054688 C 230.539062 205.046875 229.691406 205.523438 229.179688 206.859375 C 227.582031 211.042969 225.953125 215.214844 224.273438 219.367188 C 223.625 220.972656 224.15625 221.574219 225.777344 221.636719 C 229.53125 221.78125 233.285156 221.976562 237.039062 222.148438 Z M 236.292969 189.660156 C 238.40625 188.53125 240.363281 187.351562 242.453125 186.449219 C 243.691406 185.914062 244.304688 185.257812 244.472656 183.816406 C 245.117188 178.390625 245.945312 172.988281 246.699219 167.574219 C 247.050781 165.054688 247.398438 162.53125 247.765625 159.886719 C 242.414062 161.222656 237.476562 162.667969 232.449219 163.636719 C 229.203125 164.257812 227.308594 165.886719 225.984375 168.824219 C 221.503906 178.769531 216.964844 188.691406 212.246094 198.519531 C 210.410156 202.335938 210.292969 206.320312 210.042969 210.378906 C 210.601562 209.488281 211.023438 208.546875 211.40625 207.597656 C 215.316406 197.9375 219.25 188.285156 223.101562 178.601562 C 223.933594 176.515625 225.046875 175.09375 227.488281 175.066406 C 230.691406 175.027344 233.644531 175.820312 236.234375 177.6875 C 238.886719 179.601562 239.445312 181.683594 238.273438 184.734375 C 237.640625 186.386719 236.953125 188.015625 236.292969 189.660156 Z M 203.375 232.667969 C 203.929688 225.8125 204.394531 219.21875 205.023438 212.640625 C 205.46875 207.945312 205.175781 203.082031 207.1875 198.671875 C 212.292969 187.480469 217.527344 176.34375 222.734375 165.199219 C 224.175781 162.117188 226.597656 160.277344 229.941406 159.515625 C 235.585938 158.238281 241.199219 156.84375 246.832031 155.511719 C 247.445312 155.367188 248.105469 155.355469 248.429688 154.648438 C 247.789062 154.097656 247.144531 154.445312 246.570312 154.589844 C 239.222656 156.445312 231.910156 158.425781 224.539062 160.171875 C 221.121094 160.980469 218.980469 162.890625 217.582031 166.039062 C 212.984375 176.382812 208.273438 186.679688 203.640625 197.011719 C 202.605469 199.320312 201.792969 201.703125 201.585938 204.269531 C 200.972656 211.925781 200.308594 219.574219 199.667969 227.226562 C 199.550781 228.609375 198.953125 230.1875 199.429688 231.324219 C 200.042969 232.792969 202.125 231.484375 203.375 232.667969 Z M 218.046875 223.222656 C 219.96875 218.28125 221.8125 213.410156 223.753906 208.582031 C 227.066406 200.347656 230.460938 192.144531 233.75 183.898438 C 234.054688 183.136719 235.007812 182.1875 233.742188 181.3125 C 232.089844 180.160156 230.238281 179.300781 228.273438 179.546875 C 226.652344 179.75 226.730469 181.652344 226.238281 182.847656 C 221.082031 195.414062 215.996094 208.003906 210.816406 220.765625 C 213.414062 221.105469 215.867188 221.636719 218.046875 223.222656 Z M 419.96875 167.550781 C 419.863281 167.550781 419.761719 167.546875 419.65625 167.546875 C 419.65625 170.238281 419.753906 172.933594 419.613281 175.617188 C 419.542969 176.890625 419.878906 177.382812 421.117188 177.507812 C 422.898438 177.691406 424.699219 177.878906 426.433594 178.300781 C 427.714844 178.613281 428.328125 178.253906 428.945312 177.148438 C 431.882812 171.890625 434.875 166.660156 437.914062 161.460938 C 438.683594 160.144531 438.554688 159.53125 437.183594 158.636719 C 433.160156 156.003906 429.238281 154.515625 424.296875 156.441406 C 420.550781 157.90625 420.40625 157.496094 420.265625 161.683594 C 420.199219 163.640625 420.070312 165.59375 419.96875 167.550781 Z M 268.636719 241.257812 C 268.773438 240.417969 268.878906 239.949219 268.925781 239.476562 C 269.855469 229.878906 270.75 220.28125 271.714844 210.691406 C 272.113281 206.730469 272.058594 202.691406 273.777344 198.9375 C 276.21875 193.605469 278.484375 188.1875 280.988281 182.882812 C 282.0625 180.605469 283.039062 178.570312 280.644531 176.542969 C 280.316406 176.269531 280.265625 175.535156 279.707031 175.578125 C 279.144531 175.625 279.136719 176.265625 278.941406 176.707031 C 275.945312 183.398438 272.917969 190.074219 269.925781 196.769531 C 268.792969 199.300781 267.707031 201.847656 267.457031 204.667969 C 266.488281 215.574219 265.503906 226.476562 264.511719 237.378906 C 264.445312 238.082031 264.292969 238.746094 265.382812 238.570312 C 267.21875 238.269531 267.992188 239.464844 268.636719 241.257812 Z M 370.492188 169.230469 C 370.515625 169.335938 370.539062 169.441406 370.5625 169.542969 C 373.378906 169.980469 376.199219 170.398438 379.011719 170.855469 C 387.953125 172.300781 396.894531 173.765625 405.839844 175.203125 C 406.453125 175.300781 407.453125 175.988281 407.46875 174.636719 C 407.519531 169.945312 407.488281 165.253906 407.488281 160.632812 C 395.320312 163.460938 382.90625 166.34375 370.492188 169.230469 Z M 448.980469 231.640625 C 448.933594 225.214844 444.121094 220.023438 438.199219 220.011719 C 431.769531 220 426.386719 225.773438 426.496094 232.554688 C 426.605469 239.210938 431.535156 244.371094 437.730469 244.320312 C 443.976562 244.269531 449.035156 238.570312 448.980469 231.640625 Z M 262.449219 86.46875 C 263.773438 85.648438 264.320312 84.636719 264.90625 83.699219 C 267.921875 78.859375 270.9375 74.019531 273.847656 69.121094 C 274.699219 67.683594 275.601562 66.769531 277.382812 66.570312 C 283.457031 65.890625 289.511719 65.019531 295.582031 64.296875 C 296.738281 64.160156 297.246094 64.011719 297.15625 62.59375 C 296.929688 58.898438 297.03125 58.894531 293.292969 59.261719 C 292.96875 59.292969 292.640625 59.296875 292.316406 59.332031 C 285.144531 60.160156 277.972656 60.992188 270.75 61.832031 C 271.40625 64.4375 273.019531 66.773438 271.128906 69.246094 C 269.242188 71.71875 267.730469 74.414062 266.449219 77.242188 C 266.066406 78.082031 265.648438 79.03125 264.722656 79.171875 C 262.894531 79.445312 262.929688 80.691406 262.863281 82.03125 C 262.792969 83.414062 262.609375 84.789062 262.449219 86.46875 Z M 509.316406 212.464844 C 509.066406 212.464844 508.816406 212.464844 508.566406 212.460938 C 508.566406 206.992188 508.519531 201.523438 508.59375 196.054688 C 508.617188 194.46875 508.367188 193.691406 506.488281 193.820312 C 504.832031 193.929688 504.085938 194.132812 504.160156 196.125 C 504.574219 207.140625 504.878906 218.164062 505.070312 229.1875 C 505.101562 231.046875 505.90625 231.019531 507.257812 231.039062 C 508.683594 231.0625 509.417969 230.933594 509.367188 229.121094 C 509.222656 223.570312 509.316406 218.015625 509.316406 212.464844 Z M 250.09375 226.867188 C 244.148438 226.671875 238.472656 226.496094 232.800781 226.289062 C 232.035156 226.261719 231.878906 226.722656 231.667969 227.289062 C 229.910156 232.027344 230.445312 232.84375 235.382812 232.890625 C 239.914062 232.933594 239.960938 232.917969 241.484375 237.472656 C 241.8125 238.457031 242.296875 238.679688 243.203125 238.765625 C 244.128906 238.855469 244.699219 238.675781 245.109375 237.761719 C 246.683594 234.222656 248.324219 230.71875 250.09375 226.867188 Z M 432.679688 179.363281 C 434.988281 179.734375 436.769531 179.941406 438.515625 180.328125 C 439.734375 180.597656 440.386719 180.332031 441.011719 179.164062 C 443.078125 175.289062 445.304688 171.5 447.457031 167.671875 C 449.15625 164.65625 449.148438 164.65625 446.109375 163.132812 C 442.847656 161.5 442.847656 161.5 440.992188 164.761719 C 438.265625 169.550781 435.539062 174.339844 432.679688 179.363281 Z M 271.960938 181.035156 C 270.601562 180.777344 270.375 181.367188 270.066406 182.117188 C 264.800781 194.929688 259.503906 207.730469 254.1875 220.519531 C 253.835938 221.367188 253.753906 221.917969 254.847656 222.023438 C 256.898438 222.226562 258.597656 223.332031 260.335938 224.308594 C 262.058594 220.824219 262.136719 217.226562 262.386719 213.660156 C 262.902344 206.339844 263.132812 198.996094 266.835938 192.285156 C 268.792969 188.742188 270.21875 184.910156 271.960938 181.035156 Z M 508.644531 253.402344 C 512.558594 249.761719 517.128906 247.535156 516.542969 241.21875 C 516 235.332031 516.53125 235.285156 510.519531 235.570312 C 510.355469 235.578125 510.191406 235.59375 510.03125 235.582031 C 509.011719 235.519531 508.609375 235.921875 508.621094 237.007812 C 508.671875 242.292969 508.644531 247.582031 508.644531 253.402344 Z M 160.3125 242.671875 C 159.945312 242.972656 159.753906 243.101562 159.605469 243.261719 C 145.246094 258.898438 130.960938 274.605469 116.246094 289.910156 C 115.363281 290.824219 114.839844 291.902344 114.621094 293.132812 C 114.539062 293.605469 113.855469 294.335938 114.792969 294.507812 C 115.472656 294.628906 116.625 294.871094 116.726562 293.660156 C 117.027344 290.128906 119.652344 288.082031 121.777344 285.796875 C 134.222656 272.394531 146.746094 259.0625 159.257812 245.71875 C 160 244.925781 160.710938 244.171875 160.3125 242.671875 Z M 217.121094 233.933594 C 216.863281 237.84375 216.863281 237.84375 220.765625 237.929688 C 221.5 237.949219 222.234375 237.980469 222.964844 237.996094 C 223.359375 238.003906 224.027344 238.078125 224.011719 237.671875 C 223.878906 234.734375 226.992188 233.121094 226.949219 230.195312 C 226.929688 228.917969 227.953125 227.261719 227.4375 226.449219 C 226.769531 225.390625 224.859375 226.21875 223.558594 225.746094 C 222.410156 225.332031 221.765625 225.628906 221.492188 226.925781 C 221.242188 228.125 220.425781 229.078125 219.121094 229 C 217.34375 228.890625 217.085938 229.863281 217.117188 231.246094 C 217.136719 232.140625 217.121094 233.039062 217.121094 233.933594 Z M 433.449219 286.140625 C 440.332031 285.785156 446.523438 285.464844 452.460938 285.160156 C 449.265625 279.777344 444.425781 278.691406 438.730469 279.535156 C 437.324219 279.742188 436.578125 279.921875 436.3125 281.464844 C 436.035156 283.0625 435.121094 284.453125 433.449219 286.140625 Z M 309.898438 71.050781 C 312.8125 71.015625 312.796875 71.019531 311.945312 68.304688 C 311.578125 67.144531 311.253906 65.96875 310.972656 64.785156 C 310.5625 63.050781 310.746094 60.75 309.683594 59.703125 C 308.410156 58.449219 306.128906 59.9375 304.300781 59.734375 C 301.667969 59.4375 301.390625 60.832031 301.601562 62.910156 C 301.691406 63.8125 302.007812 64.429688 302.726562 64.914062 C 304.644531 66.203125 306.230469 67.839844 307.410156 69.816406 C 308.042969 70.875 308.847656 71.300781 309.898438 71.050781 Z M 396.375 288.1875 C 394.964844 286.707031 393.5625 285.992188 393.386719 284.757812 C 392.765625 280.355469 389.761719 280.730469 386.652344 281.09375 C 385.84375 281.183594 385.023438 281.144531 384.207031 281.160156 C 383.5625 281.175781 383.152344 281.398438 383.078125 282.136719 C 382.816406 284.636719 381.46875 286.59375 379.773438 288.1875 C 385.136719 288.1875 390.414062 288.1875 396.375 288.1875 Z M 422.636719 286.515625 C 421.757812 285.433594 420.648438 284.664062 420.425781 283.6875 C 419.535156 279.847656 416.910156 279.742188 413.84375 280.207031 C 412.882812 280.351562 411.890625 280.347656 410.914062 280.371094 C 410.285156 280.386719 409.757812 280.511719 409.671875 281.242188 C 409.40625 283.546875 408.203125 285.429688 406.632812 287.40625 C 412.144531 287.101562 417.304688 286.8125 422.636719 286.515625 Z M 255.113281 106.09375 C 253.496094 106.292969 252.800781 107.179688 252.574219 108.503906 C 252.3125 110.03125 252.074219 111.558594 251.847656 113.089844 C 250.777344 120.261719 249.695312 127.429688 248.667969 134.605469 C 248.394531 136.515625 248.332031 138.4375 250.328125 139.972656 C 251.945312 128.519531 253.523438 117.347656 255.113281 106.09375 Z M 265.558594 63.386719 C 263.214844 63.703125 261.199219 63.992188 259.179688 64.246094 C 258.5625 64.320312 258.328125 64.671875 258.375 65.222656 C 258.617188 68.222656 258.644531 71.25 259.410156 74.1875 C 259.648438 75.105469 260.347656 75.429688 261.242188 75.511719 C 262.023438 75.582031 262.460938 75.195312 262.753906 74.550781 C 263.890625 72.023438 265.246094 69.628906 266.847656 67.355469 C 267.800781 66.003906 266.636719 63.410156 265.558594 63.386719 Z M 306.390625 138.621094 C 307.898438 126.714844 309.359375 115.203125 310.84375 103.511719 C 309.046875 103.984375 308.722656 105.222656 308.539062 106.535156 C 307.265625 115.644531 306 124.753906 304.738281 133.867188 C 304.507812 135.527344 304.695312 137.074219 306.390625 138.621094 Z M 454.984375 149.453125 C 453.34375 149.855469 451.878906 150.28125 450.386719 150.5625 C 448.882812 150.851562 447.703125 151.28125 447.265625 153.039062 C 446.847656 154.707031 444.523438 156.1875 445.347656 157.671875 C 446.070312 158.976562 448.359375 159.390625 449.914062 160.269531 C 450.910156 160.835938 451.382812 160.714844 451.894531 159.585938 C 453.324219 156.414062 454.558594 153.207031 454.984375 149.453125 Z M 232.160156 200.363281 C 235.449219 200.363281 238.363281 200.347656 241.277344 200.375 C 242.1875 200.386719 242.5625 200.058594 242.648438 199.117188 C 242.894531 196.390625 243.234375 193.667969 243.574219 190.625 C 239.140625 193.285156 235.25 196.125 232.160156 200.363281 Z M 369.480469 289.152344 C 367.378906 287.316406 366.210938 285.152344 365.523438 282.652344 C 364.984375 280.703125 363.414062 281.289062 362.84375 282.140625 C 360.925781 285.007812 358.683594 287.527344 355.691406 289.789062 C 360.574219 289.5625 365.027344 289.355469 369.480469 289.152344 Z M 299.902344 204.195312 C 299.480469 204.140625 299.292969 204.378906 299.097656 204.660156 C 297.183594 207.390625 295.320312 210.152344 293.855469 213.15625 C 291.617188 217.734375 291.640625 217.683594 296.730469 217.910156 C 298.105469 217.972656 298.550781 217.652344 298.664062 216.261719 C 298.988281 212.230469 299.476562 208.210938 299.902344 204.195312 Z M 362.582031 175.039062 C 362.820312 174.257812 362.78125 173.636719 361.675781 173.617188 C 359.410156 173.574219 357.277344 172.441406 354.953125 172.839844 C 352.867188 173.199219 352.878906 175.0625 352.695312 176.410156 C 352.511719 177.777344 354.121094 177.226562 354.898438 177.441406 C 356.21875 177.8125 357.617188 177.878906 358.984375 178.066406 C 362.328125 178.527344 362.332031 178.527344 362.582031 175.039062 Z M 278.019531 277.710938 C 279.179688 282.152344 279.550781 282.269531 282.921875 279.425781 C 283.109375 279.265625 283.292969 279.101562 283.460938 278.925781 C 285.460938 276.863281 286.019531 273.378906 284.78125 270.710938 C 283.773438 268.546875 281.09375 267.144531 278.464844 267.414062 C 275.492188 267.714844 275.050781 268.53125 276.433594 271.183594 C 279.035156 269.210938 281.027344 268.929688 282.859375 270.351562 C 284.566406 271.683594 284.910156 273.398438 284.070312 275.371094 C 283.101562 277.652344 281.769531 278.183594 278.019531 277.710938 Z M 465.84375 265.4375 C 463.890625 265.488281 462.199219 267.53125 462.308594 269.703125 C 462.40625 271.746094 464.011719 273.328125 465.914062 273.261719 C 467.890625 273.191406 469.441406 271.453125 469.4375 269.304688 C 469.429688 267.179688 467.765625 265.386719 465.84375 265.4375 Z M 315.882812 270.828125 C 312.335938 270.539062 312.453125 270.53125 312.699219 274.003906 C 312.808594 275.5625 313.355469 275.835938 314.746094 275.773438 C 316.105469 275.710938 317.480469 275.996094 318.851562 276.089844 C 319.425781 276.125 320.082031 276.449219 320.199219 275.324219 C 320.539062 271.957031 319.980469 271.191406 316.609375 270.886719 C 316.363281 270.863281 316.125 270.847656 315.882812 270.828125 Z M 430.390625 115.792969 C 426.925781 116.589844 423.546875 117.488281 420.121094 118.105469 C 418.273438 118.4375 418.777344 119.566406 418.859375 120.628906 C 418.992188 122.378906 420.085938 121.371094 420.796875 121.230469 C 422.386719 120.914062 423.949219 120.382812 425.550781 120.171875 C 428.128906 119.832031 430 118.808594 430.390625 115.792969 Z M 282.253906 159.03125 C 278.414062 159.519531 273.835938 165.871094 274.605469 169.414062 C 274.78125 170.210938 275.308594 170.828125 276.003906 170.941406 C 276.808594 171.078125 276.882812 170.148438 277.125 169.609375 C 278.714844 166.0625 280.101562 162.417969 282.253906 159.03125 Z M 431.277344 195.679688 C 431.253906 195.566406 431.230469 195.453125 431.207031 195.339844 C 428.566406 194.945312 425.929688 194.53125 423.285156 194.164062 C 419.042969 193.582031 419.035156 193.597656 418.621094 197.742188 C 418.597656 197.957031 418.726562 198.1875 418.804688 198.503906 C 422.996094 197.554688 427.136719 196.617188 431.277344 195.679688 Z M 206.695312 237.449219 C 208.078125 237.171875 209.464844 238.332031 210.167969 236.71875 C 211.554688 233.527344 212.769531 230.265625 214.113281 227.054688 C 214.5625 225.972656 213.808594 225.867188 213.15625 225.53125 C 212.390625 225.132812 212.0625 225.308594 211.71875 226.101562 C 210.128906 229.804688 208.464844 233.476562 206.695312 237.449219 Z M 249.308594 238.789062 C 251.136719 239.453125 252.304688 239.089844 253.03125 237.085938 C 254.023438 234.347656 255.273438 231.699219 256.480469 229.039062 C 256.902344 228.113281 257.085938 227.53125 255.914062 226.953125 C 254.585938 226.300781 254.550781 227.347656 254.257812 227.980469 C 252.585938 231.558594 250.964844 235.160156 249.308594 238.789062 Z M 315.035156 258.871094 C 316.179688 258.929688 317.148438 258.941406 318.113281 259.042969 C 319.082031 259.144531 320.035156 259.363281 321.003906 259.472656 C 321.867188 259.566406 324.507812 256.347656 324.191406 255.597656 C 324.117188 255.414062 323.855469 255.277344 323.652344 255.191406 C 319.546875 253.429688 316.832031 254.515625 315.035156 258.871094 Z M 447.054688 114.992188 C 442.691406 111.742188 437.125 113.121094 434.472656 117.980469 C 438.707031 116.976562 442.679688 116.03125 447.054688 114.992188 Z M 405.070312 280.652344 C 402.570312 280.652344 400.292969 280.679688 398.015625 280.640625 C 396.371094 280.617188 396.402344 281.328125 397.191406 282.378906 C 398.21875 283.746094 399.484375 284.746094 401.320312 284.496094 C 403.433594 284.203125 404.53125 282.832031 405.070312 280.652344 Z M 374.316406 285.515625 C 376.019531 285.515625 377.367188 284.464844 378.175781 282.691406 C 378.664062 281.621094 378.492188 281.226562 377.277344 281.300781 C 375.660156 281.398438 374.035156 281.367188 372.421875 281.492188 C 371.679688 281.550781 370.5625 280.996094 370.253906 281.90625 C 369.925781 282.867188 370.757812 283.714844 371.464844 284.375 C 372.253906 285.109375 373.191406 285.574219 374.316406 285.515625 Z M 313.6875 82.804688 C 316 75.867188 315.375 74.773438 309.667969 75.53125 C 309.609375 75.539062 309.5625 75.621094 309.398438 75.765625 C 310.800781 78.066406 312.21875 80.390625 313.6875 82.804688 Z M 423.402344 279.757812 C 424.613281 282.304688 426.003906 283.429688 428.046875 283.457031 C 429.734375 283.476562 430.898438 282.527344 431.65625 281.015625 C 432.121094 280.085938 432.003906 279.71875 430.886719 279.742188 C 428.546875 279.789062 426.207031 279.757812 423.402344 279.757812 Z M 489.679688 147.773438 C 489.679688 145.867188 489.660156 144.101562 489.691406 142.335938 C 489.703125 141.683594 489.621094 141.136719 488.828125 141.21875 C 488.082031 141.292969 487.128906 140.765625 486.660156 141.78125 C 485.78125 143.675781 487.191406 146.742188 489.679688 147.773438 Z M 317.605469 286.203125 C 318.820312 289.035156 320.527344 289.515625 325.523438 288.769531 C 323.636719 285.410156 320.316406 287.394531 317.605469 286.203125 Z M 232.886719 238.679688 C 232.886719 238.71875 232.886719 238.757812 232.886719 238.800781 C 233.53125 238.800781 234.179688 238.835938 234.820312 238.789062 C 235.367188 238.746094 236.207031 239.234375 236.28125 238.132812 C 236.34375 237.175781 235.632812 237.148438 234.984375 237.125 C 233.613281 237.085938 232.242188 237.117188 230.871094 237.050781 C 230.050781 237.011719 229.335938 237.101562 229.429688 238.117188 C 229.527344 239.207031 230.429688 238.570312 230.957031 238.65625 C 231.585938 238.757812 232.242188 238.679688 232.886719 238.679688 Z M 256.816406 239.480469 C 258.117188 238.832031 259.644531 239.808594 259.863281 238.457031 C 260.195312 236.433594 260.726562 234.320312 260.207031 231.84375 C 259.070312 234.410156 258.097656 236.59375 256.816406 239.480469 Z M 195.265625 237.679688 C 196.136719 236.753906 198.191406 238.886719 198.347656 236.847656 C 198.453125 235.472656 196.363281 236.183594 195.316406 236.140625 C 194.199219 236.089844 192.171875 235.015625 192.078125 236.824219 C 192.003906 238.199219 194.074219 237.082031 195.265625 237.679688 Z M 442.414062 152.40625 C 440.65625 152.902344 439.246094 153.300781 437.71875 153.734375 C 441.054688 155.992188 441.054688 155.992188 442.414062 152.40625 Z M 442.414062 152.40625 " fill-opacity="1" fill-rule="evenodd"/></g><path fill="#b91c1c" d="M 480.714844 122.605469 C 480.683594 126.027344 477.859375 128.90625 474.527344 128.914062 C 471.144531 128.917969 468.324219 125.933594 468.324219 122.34375 C 468.320312 118.652344 471.085938 115.832031 474.59375 115.945312 C 478.058594 116.058594 480.75 118.988281 480.714844 122.605469 Z M 476.339844 122.554688 C 476.34375 121.308594 475.9375 120.304688 474.648438 120.214844 C 473.316406 120.121094 472.839844 121.113281 472.75 122.289062 C 472.65625 123.527344 473.179688 124.429688 474.445312 124.542969 C 475.816406 124.664062 476.230469 123.667969 476.339844 122.554688 Z M 476.339844 122.554688 " fill-opacity="1" fill-rule="evenodd"/><path fill="#b91c1c" d="M 445.25 188.964844 C 445.234375 185.28125 447.722656 182.5625 451.15625 182.511719 C 454.515625 182.460938 457.503906 185.476562 457.535156 188.945312 C 457.566406 192.441406 454.664062 195.378906 451.199219 195.363281 C 447.773438 195.34375 445.269531 192.652344 445.25 188.964844 Z M 451.175781 186.761719 C 449.78125 187.042969 449.335938 188.046875 449.394531 189.277344 C 449.445312 190.40625 450.203125 191.152344 451.304688 191.078125 C 452.539062 190.992188 453.136719 190.027344 453.082031 188.847656 C 453.027344 187.710938 452.527344 186.800781 451.175781 186.761719 Z M 451.175781 186.761719 " fill-opacity="1" fill-rule="evenodd"/><path fill="#b91c1c" d="M 341.308594 180.644531 C 338.105469 180.601562 335.496094 177.871094 335.53125 174.601562 C 335.566406 171.476562 337.886719 169.167969 340.953125 169.210938 C 344.132812 169.257812 346.777344 172.03125 346.71875 175.265625 C 346.664062 178.421875 344.382812 180.6875 341.308594 180.644531 Z M 342.464844 174.964844 C 342.457031 174.136719 342.066406 173.460938 341.261719 173.410156 C 340.289062 173.351562 339.875 174.085938 339.882812 174.996094 C 339.894531 175.863281 340.5 176.359375 341.253906 176.40625 C 342.144531 176.464844 342.441406 175.769531 342.464844 174.964844 Z M 342.464844 174.964844 " fill-opacity="1" fill-rule="evenodd"/><path fill="#b91c1c" d="M 345.882812 278.765625 C 341.375 278.828125 337.855469 275.222656 337.757812 270.449219 C 337.652344 265.308594 341.050781 261.453125 345.695312 261.441406 C 350.21875 261.429688 353.96875 265.316406 353.957031 270.011719 C 353.945312 274.839844 350.382812 278.703125 345.882812 278.765625 Z M 346.074219 265.941406 C 344.140625 265.867188 342.234375 267.867188 342.097656 270.109375 C 341.964844 272.261719 343.628906 274.175781 345.667969 274.214844 C 347.652344 274.253906 349.335938 272.492188 349.460938 270.246094 C 349.589844 268.007812 348.015625 266.011719 346.074219 265.941406 Z M 346.074219 265.941406 " fill-opacity="1" fill-rule="evenodd"/><path fill="#b91c1c" d="M 438.53125 240.429688 C 434.207031 240.464844 430.75 236.941406 430.691406 232.445312 C 430.632812 227.738281 433.925781 224.160156 438.398438 224.074219 C 442.710938 223.984375 446.199219 227.515625 446.257812 232.023438 C 446.320312 236.625 442.851562 240.394531 438.53125 240.429688 Z M 438.546875 228.453125 C 436.65625 228.429688 435.050781 230.214844 435.039062 232.347656 C 435.03125 234.402344 436.535156 236.023438 438.4375 236 C 440.226562 235.976562 441.777344 234.269531 441.839844 232.25 C 441.902344 230.257812 440.355469 228.476562 438.546875 228.453125 Z M 438.546875 228.453125 " fill-opacity="1" fill-rule="evenodd"/><g clip-path="url(#b0d3d6a0dd)"><path fill="#b91c1c" d="M 399.246094 298.035156 C 385.738281 298.664062 366.0625 299.648438 346.382812 300.449219 C 340.582031 300.6875 334.835938 299.5 329.058594 299.003906 C 325.96875 298.738281 322.890625 298.3125 319.804688 298.003906 C 313.707031 297.402344 308.824219 294.566406 304.953125 289.914062 C 304.324219 289.160156 303.742188 288.78125 302.707031 288.824219 C 296.011719 289.09375 289.3125 289.34375 282.613281 289.484375 C 281.023438 289.519531 280.394531 290.027344 280.074219 291.613281 C 278.617188 298.824219 274.433594 302.386719 267.144531 303.050781 C 249.816406 304.636719 232.488281 306.257812 215.164062 307.902344 C 209.078125 308.484375 203.097656 307.332031 197.085938 306.835938 C 181.617188 305.554688 166.167969 304.023438 150.703125 302.679688 C 138.003906 301.574219 125.292969 300.617188 112.589844 299.554688 C 108.871094 299.246094 108.625 298.734375 109.277344 295.101562 C 110.023438 290.960938 111.800781 287.589844 114.796875 284.496094 C 129.648438 269.179688 144.097656 253.484375 158.371094 237.625 C 159.765625 236.074219 161.167969 235.53125 163.277344 235.679688 C 170.691406 236.210938 178.125 236.496094 185.554688 236.890625 C 186.496094 236.941406 187.097656 236.925781 187.492188 235.710938 C 188.796875 231.671875 188.984375 231.511719 193.195312 231.617188 C 195.085938 231.664062 194.867188 230.484375 194.960938 229.445312 C 195.6875 221.46875 196.460938 213.5 197.03125 205.511719 C 197.300781 201.707031 198.117188 198.117188 199.703125 194.65625 C 204.25 184.730469 208.859375 174.828125 213.234375 164.824219 C 215.433594 159.796875 218.8125 156.730469 224.28125 155.515625 C 232.074219 153.789062 239.757812 151.570312 247.496094 149.589844 C 248.414062 149.351562 249.242188 149.171875 249.203125 147.949219 C 249.167969 146.832031 250.050781 145.679688 248.542969 144.710938 C 244.753906 142.28125 243.527344 138.628906 244.140625 134.3125 C 245.378906 125.582031 246.695312 116.863281 247.949219 108.136719 C 248.460938 104.59375 250.449219 102.328125 253.839844 101.398438 C 255.363281 100.980469 255.832031 100.191406 256.015625 98.683594 C 256.6875 93.089844 257.523438 87.515625 258.324219 81.941406 C 258.503906 80.6875 258.523438 79.707031 257.265625 78.789062 C 255.582031 77.558594 254.628906 75.722656 254.425781 73.5625 C 254.152344 70.636719 253.746094 67.71875 253.566406 64.785156 C 253.316406 60.757812 254.742188 58.945312 258.660156 58.445312 C 265.789062 57.527344 272.933594 56.730469 280.070312 55.910156 C 289.808594 54.789062 299.546875 53.691406 309.285156 52.59375 C 314.285156 52.027344 319.242188 52.878906 324.210938 53.117188 C 337.355469 53.738281 350.484375 54.570312 363.621094 55.328125 C 372.027344 55.8125 380.433594 56.230469 388.828125 56.832031 C 400.707031 57.6875 410.054688 66.464844 411.949219 78.246094 C 413.753906 89.449219 415.660156 100.636719 417.472656 111.835938 C 417.71875 113.359375 418.039062 114.0625 419.910156 113.609375 C 424.902344 112.398438 430.042969 111.75 434.960938 110.3125 C 438.097656 109.398438 441.121094 108.972656 444.324219 109.214844 C 446.984375 109.417969 449.289062 110.277344 450.792969 112.589844 C 451.410156 113.542969 452.109375 113.617188 453.066406 113.316406 C 458.417969 111.632812 463.914062 110.398438 469.335938 109.085938 C 477.953125 107 486.394531 108.378906 486.585938 120.910156 C 486.65625 125.488281 486.671875 130.066406 486.554688 134.640625 C 486.515625 136.226562 486.894531 136.722656 488.535156 136.753906 C 494.386719 136.859375 494.421875 136.972656 494.21875 142.746094 C 494.128906 145.273438 493.285156 148.175781 494.238281 150.234375 C 495.207031 152.320312 498.539062 152.464844 500.6875 153.75 C 502.15625 154.632812 503.710938 155.367188 505.1875 156.234375 C 509.773438 158.925781 512.058594 162.742188 512.136719 168.265625 C 512.429688 188.535156 513.515625 208.785156 513.582031 229.0625 C 513.585938 230.507812 513.949219 231.003906 515.480469 231.082031 C 519.882812 231.3125 521 232.625 520.96875 237.058594 C 520.949219 239.34375 520.796875 241.640625 520.894531 243.921875 C 521.046875 247.378906 519.910156 250.152344 517.074219 252.195312 C 516.679688 252.480469 516.289062 252.789062 515.960938 253.152344 C 510.042969 259.691406 501.773438 261.832031 493.988281 264.839844 C 492.292969 265.496094 491.753906 266.269531 491.757812 268.132812 C 491.792969 283.90625 481.355469 294.644531 465.683594 295.261719 C 445.59375 296.054688 425.503906 296.933594 399.246094 298.035156 Z M 499.257812 158.449219 C 499.257812 158.328125 499.257812 158.203125 499.261719 158.082031 C 499.152344 158.125 499.046875 158.164062 498.941406 158.207031 C 499.066406 158.273438 499.191406 158.339844 499.316406 158.402344 C 499.261719 159.148438 499.84375 159.574219 500.226562 160.058594 C 502.484375 162.925781 503.441406 166.097656 503.410156 169.804688 C 503.359375 175.757812 503.792969 181.710938 503.882812 187.667969 C 503.90625 189.480469 504.632812 189.691406 506.21875 189.683594 C 507.929688 189.671875 508.191406 189.027344 508.136719 187.519531 C 507.910156 181.15625 507.773438 174.792969 507.648438 168.429688 C 507.542969 163.191406 504.621094 159.679688 499.257812 158.449219 Z M 393.945312 127.972656 C 395.808594 127.503906 397.542969 127.117188 399.25 126.628906 C 401.777344 125.902344 405.496094 126.3125 406.519531 124.25 C 407.519531 122.234375 406.257812 119.039062 405.839844 116.382812 C 403.980469 104.539062 402.042969 92.703125 400.179688 80.855469 C 399.179688 74.472656 394.167969 69.519531 387.625 69.097656 C 368.714844 67.878906 349.792969 66.84375 330.878906 65.664062 C 329.113281 65.554688 328.753906 66.167969 328.566406 67.761719 C 326.703125 83.570312 324.75 99.371094 322.820312 115.171875 C 321.625 124.976562 320.421875 134.777344 319.222656 144.582031 C 319.117188 145.46875 318.738281 146.398438 320.410156 145.988281 C 329.351562 143.785156 338.3125 141.671875 347.261719 139.507812 C 347.933594 139.347656 348.710938 139.339844 348.898438 138.347656 C 349.476562 135.3125 350.511719 132.355469 350.542969 129.222656 C 350.597656 123.753906 351.957031 118.570312 354.105469 113.589844 C 355.582031 110.175781 358.117188 107.703125 361.859375 107.125 C 369.742188 105.90625 377.613281 104.449219 385.660156 106.242188 C 390.574219 107.335938 392.726562 109.117188 393.929688 113.980469 C 394.40625 115.914062 394.460938 117.863281 394.402344 119.816406 C 394.324219 122.492188 394.109375 125.160156 393.945312 127.972656 Z M 482.15625 132 C 482.121094 132 482.085938 132 482.050781 132 C 482.050781 127.828125 482.125 123.660156 482.03125 119.492188 C 481.953125 116.0625 480.601562 113.675781 478.261719 113.289062 C 470.949219 112.089844 467.214844 113.453125 465.601562 120.664062 C 464.316406 126.398438 462.992188 132.136719 462.042969 137.929688 C 459.960938 150.597656 456.550781 162.726562 449.300781 173.554688 C 446.949219 177.066406 444.914062 180.820312 443.046875 184.617188 C 440.402344 189.992188 440.640625 195.148438 444.953125 199.773438 C 446.84375 201.804688 448.566406 203.992188 450.292969 206.167969 C 450.851562 206.875 451.511719 207.203125 452.332031 207.351562 C 460.167969 208.765625 465.820312 213.242188 469.855469 219.925781 C 471.753906 223.070312 473.597656 226.246094 475.328125 229.480469 C 475.996094 230.730469 476.753906 231.175781 478.175781 231.148438 C 484.878906 231.023438 491.585938 230.9375 498.285156 231.03125 C 500.320312 231.058594 500.867188 230.542969 500.792969 228.484375 C 500.085938 208.386719 499.480469 188.285156 498.859375 168.1875 C 498.828125 167.105469 498.71875 166.054688 498.117188 165.136719 C 494.925781 160.289062 491.773438 155.375 486.75 152.167969 C 483.617188 150.171875 482.203125 147.363281 482.164062 143.769531 C 482.125 139.847656 482.15625 135.921875 482.15625 132 Z M 312.542969 90.019531 C 312.585938 89.351562 312.5 88.777344 312.101562 88.167969 C 308.136719 82.09375 304.175781 76.007812 300.292969 69.878906 C 299.546875 68.695312 298.675781 68.527344 297.433594 68.675781 C 292.8125 69.222656 288.1875 69.71875 283.554688 70.183594 C 282.511719 70.289062 281.84375 70.597656 281.257812 71.613281 C 277.519531 78.113281 273.703125 84.570312 269.835938 90.996094 C 269.101562 92.214844 268.613281 93.441406 268.425781 94.835938 C 266.90625 106.164062 265.410156 117.492188 263.832031 128.808594 C 261.308594 146.917969 258.789062 165.027344 256.121094 183.113281 C 255.585938 186.738281 257.019531 189.242188 259.429688 191.535156 C 260.449219 192.503906 261.101562 192.546875 261.65625 191.019531 C 262.800781 187.882812 264.300781 184.863281 265.285156 181.683594 C 266.398438 178.078125 268.402344 176.0625 272.332031 176.367188 C 272.875 176.410156 273.539062 176.546875 273.761719 175.796875 C 273.976562 175.078125 273.367188 174.8125 272.9375 174.464844 C 271.148438 173.007812 269.921875 171.230469 269.972656 168.832031 C 270.136719 161.316406 275.554688 155.117188 283 153.964844 C 289.277344 152.992188 295.601562 152.460938 301.8125 150.894531 C 304.503906 150.214844 305.503906 149.132812 305.417969 146.648438 C 305.382812 145.609375 306.222656 144.414062 304.816406 143.570312 C 300.292969 140.855469 299.546875 136.609375 300.230469 131.851562 C 301.460938 123.289062 302.78125 114.738281 303.949219 106.167969 C 304.453125 102.453125 306.367188 100.035156 309.832031 98.773438 C 310.59375 98.496094 311.347656 98.394531 311.472656 97.285156 C 311.746094 94.855469 312.175781 92.441406 312.542969 90.019531 Z M 355.378906 168.238281 C 378.632812 162.769531 401.367188 157.421875 424.558594 151.96875 C 421.597656 150.597656 419.203125 149.210938 416.519531 148.460938 C 414.929688 148.019531 413.75 147.199219 414.429688 145.320312 C 415.136719 143.355469 416.621094 143.789062 418.070312 144.359375 C 422.171875 145.96875 426.15625 147.832031 430.050781 149.882812 C 430.980469 150.371094 431.761719 150.4375 432.800781 150.171875 C 438.246094 148.78125 443.667969 147.09375 449.210938 146.324219 C 454.460938 145.597656 456.875 143.484375 457.53125 137.988281 C 458.421875 130.535156 460.410156 123.21875 461.925781 115.84375 C 461.765625 115.8125 461.683594 115.769531 461.617188 115.785156 C 428 124.144531 394.371094 132.472656 360.765625 140.886719 C 337.925781 146.601562 314.925781 151.652344 292.230469 157.945312 C 288.859375 158.878906 286.324219 160.640625 284.765625 163.738281 C 283.707031 165.84375 282.789062 168.023438 281.785156 170.15625 C 281.484375 170.792969 281.171875 171.355469 282.117188 171.71875 C 283.289062 172.167969 283.933594 173.25 284.863281 174.195312 C 286.261719 171.144531 287.582031 168.1875 288.976562 165.261719 C 290.890625 161.246094 294.023438 158.789062 298.410156 157.851562 C 303.765625 156.710938 309.191406 156.054688 314.59375 155.226562 C 326.128906 153.453125 337.652344 151.605469 349.203125 149.925781 C 356.210938 148.90625 360.246094 153.917969 358.015625 160.679688 C 357.234375 163.054688 356.371094 165.402344 355.378906 168.238281 Z M 272.078125 255.449219 C 272.074219 256.777344 273.152344 259.042969 273.578125 261.4375 C 273.898438 263.246094 274.375 264.429688 276.554688 263.3125 C 277.667969 262.738281 278.984375 262.808594 280.160156 263.175781 C 281.660156 263.640625 281.910156 262.992188 282.0625 261.679688 C 283.136719 252.183594 284.210938 242.691406 285.441406 233.214844 C 286.257812 226.914062 286.261719 220.429688 288.605469 214.429688 C 294.5625 199.175781 305.738281 189.316406 321.011719 183.925781 C 327.84375 181.511719 335.050781 182.0625 342.121094 181.628906 C 345.671875 181.414062 346.429688 180.851562 347.566406 177.492188 C 349.347656 172.246094 351 166.945312 353.011719 161.785156 C 355.972656 154.191406 353.046875 153.707031 347.050781 154.667969 C 331.898438 157.105469 316.753906 159.59375 301.5625 161.765625 C 296.984375 162.417969 294.160156 164.554688 292.34375 168.652344 C 287.519531 179.527344 282.558594 190.339844 277.710938 201.203125 C 277.1875 202.375 276.871094 203.699219 276.75 204.976562 C 275.199219 221.410156 273.699219 237.847656 272.078125 255.449219 Z M 248.667969 251.886719 C 246.417969 251.773438 244.882812 251.6875 243.347656 251.625 C 236.65625 251.347656 229.964844 251.066406 223.273438 250.8125 C 205.722656 250.140625 188.171875 249.492188 170.625 248.796875 C 169.195312 248.742188 168.597656 248.828125 169.03125 250.585938 C 170.167969 255.175781 171.164062 259.804688 172.027344 264.453125 C 173.292969 271.246094 175.691406 277.871094 175.203125 284.933594 C 175.117188 286.136719 176 285.921875 176.683594 285.980469 C 189.210938 287.082031 201.738281 288.167969 214.261719 289.296875 C 215.34375 289.394531 216.074219 289.140625 216.789062 288.28125 C 218.78125 285.902344 220.882812 283.617188 222.929688 281.28125 C 231.367188 271.652344 239.800781 262.015625 248.667969 251.886719 Z M 364.988281 277.253906 C 365.804688 277.253906 366.371094 277.265625 366.933594 277.25 C 392.664062 276.449219 418.394531 275.640625 444.125 274.84375 C 445.757812 274.792969 447.457031 274.523438 449.007812 274.871094 C 452.113281 275.574219 455.191406 275.03125 458.273438 275.121094 C 459.265625 275.152344 459.640625 274.820312 459.121094 273.832031 C 458.820312 273.257812 458.566406 272.648438 458.367188 272.03125 C 456.898438 267.472656 459.128906 262.71875 463.304688 261.46875 C 467.925781 260.085938 472.304688 262.53125 473.59375 267.207031 C 475.097656 272.679688 471.097656 277.75 465.179688 277.667969 C 460.957031 277.609375 456.757812 277.804688 452.5625 278.152344 C 452.53125 278.898438 453.011719 279.152344 453.339844 279.46875 C 457.625 283.597656 463.421875 284.628906 468.460938 282.183594 C 473.515625 279.730469 476.65625 273.957031 476.058594 268.210938 C 475.3125 261.046875 471.039062 257.285156 463.824219 257.476562 C 459.003906 257.605469 454.1875 257.828125 449.367188 257.921875 C 426.484375 258.367188 403.601562 258.753906 380.722656 259.257812 C 378.15625 259.3125 376.855469 258.441406 376.171875 255.960938 C 374.855469 251.167969 373.257812 246.457031 371.859375 241.6875 C 371.539062 240.609375 371.285156 240.234375 370.046875 240.660156 C 363.402344 242.957031 356.71875 245.148438 349.84375 247.441406 C 363.589844 251.152344 369.015625 264.910156 364.988281 277.253906 Z M 406.515625 194.429688 C 407.359375 192.050781 406.523438 191.023438 403.984375 191.03125 C 402.371094 191.035156 400.761719 190.550781 399.148438 190.308594 C 387.847656 188.613281 376.542969 186.933594 365.246094 185.21875 C 363.902344 185.011719 362.332031 185.015625 361.621094 183.558594 C 361.050781 182.386719 360.054688 182.234375 359.015625 182.074219 C 356.917969 181.753906 354.800781 181.542969 352.71875 181.152344 C 351.46875 180.917969 350.808594 181.273438 350.242188 182.425781 C 349.101562 184.75 347.085938 185.886719 344.519531 185.984375 C 341.089844 186.117188 337.660156 186.273438 334.226562 186.285156 C 327.722656 186.3125 321.667969 188.003906 315.878906 190.878906 C 314.734375 191.445312 314.152344 192.136719 314.023438 193.441406 C 313.351562 200.433594 312.6875 207.429688 311.824219 214.398438 C 311.558594 216.570312 312.292969 216.621094 314.019531 216.273438 C 343.765625 210.289062 373.515625 204.3125 403.289062 198.441406 C 405.789062 197.949219 407.261719 197.238281 406.515625 194.429688 Z M 480.382812 271.664062 C 481.347656 271.59375 481.167969 270.960938 481.25 270.546875 C 482.132812 266.050781 481.402344 261.757812 479.417969 257.691406 C 477.628906 254.035156 475.785156 250.398438 473.8125 246.839844 C 469.816406 239.648438 465.824219 232.445312 461.621094 225.375 C 457.691406 218.757812 451.660156 215.875 445.1875 217.121094 C 454.097656 224.539062 455.953125 233.550781 450.289062 241.890625 C 445.777344 248.535156 437.347656 250.640625 430.421875 246.847656 C 422.355469 242.433594 420.140625 233.1875 424.765625 222.425781 C 422.902344 223.042969 421.234375 223.589844 419.570312 224.148438 C 405.519531 228.871094 391.480469 233.621094 377.410156 238.285156 C 375.902344 238.785156 375.621094 239.292969 376.15625 240.808594 C 377.5625 244.804688 378.8125 248.859375 380 252.925781 C 380.351562 254.125 380.746094 254.65625 382.121094 254.628906 C 401.5625 254.238281 421 253.90625 440.441406 253.574219 C 441.195312 253.558594 441.78125 253.503906 442.320312 252.789062 C 443.734375 250.902344 452.015625 249.570312 453.945312 250.828125 C 454.144531 250.957031 454.382812 251.144531 454.441406 251.351562 C 455.066406 253.507812 456.78125 253.179688 458.394531 253.144531 C 460.601562 253.097656 462.808594 253.085938 465.011719 253.070312 C 472.257812 253.011719 477.617188 256.96875 479.765625 263.933594 C 480.542969 266.449219 480.871094 269.007812 480.382812 271.664062 Z M 444.332031 205.96875 C 442.804688 204.0625 441.167969 202.265625 439.835938 200.265625 C 439.007812 199.019531 438.234375 198.808594 436.851562 199.117188 C 431.039062 200.40625 425.191406 201.539062 419.375 202.816406 C 417.746094 203.171875 416.5625 202.953125 416.21875 201.171875 C 415.976562 199.910156 415.378906 200.242188 414.496094 200.429688 C 403.328125 202.808594 392.160156 205.191406 380.964844 207.445312 C 356.8125 212.3125 332.648438 217.121094 308.476562 221.894531 C 307.078125 222.171875 306.507812 222.65625 306.234375 224.113281 C 305.035156 230.460938 304.453125 236.890625 303.667969 243.292969 C 303.332031 246.023438 302.753906 248.785156 303.214844 252.074219 C 307.585938 244.664062 314.164062 241.15625 321.566406 238.773438 C 351.5 229.121094 381.464844 219.558594 411.335938 209.703125 C 420.367188 206.726562 429.324219 204.46875 438.90625 205.929688 C 440.632812 206.195312 442.433594 205.96875 444.332031 205.96875 Z M 227.027344 298.632812 C 227.019531 301.882812 227.023438 301.925781 230.046875 301.652344 C 242.25 300.550781 254.433594 299.089844 266.660156 298.429688 C 273.21875 298.074219 276.949219 291.84375 275.515625 286.488281 C 271.78125 272.550781 267.917969 258.648438 264.929688 244.527344 C 264.6875 243.378906 264.246094 243.332031 263.273438 243.492188 C 262.105469 243.679688 261.167969 244.003906 260.359375 244.984375 C 246.367188 261.9375 231.722656 278.328125 217.242188 294.859375 C 216.164062 296.09375 215.21875 297.382812 214.714844 298.996094 C 213.300781 303.542969 213.269531 303.53125 218.082031 302.976562 C 218.8125 302.890625 219.550781 302.675781 220.269531 302.738281 C 221.898438 302.878906 222.476562 302.136719 222.320312 300.617188 C 221.867188 296.191406 223.671875 292.726562 226.871094 289.835938 C 227.230469 289.511719 227.5 289.085938 227.820312 288.714844 C 238.542969 276.382812 249.261719 264.050781 259.980469 251.71875 C 260.703125 250.890625 261.496094 250.039062 262.679688 250.738281 C 263.71875 251.351562 264.34375 252.433594 264.089844 253.625 C 263.933594 254.359375 263.277344 255.019531 262.746094 255.628906 C 251.359375 268.679688 239.96875 281.734375 228.535156 294.742188 C 227.441406 295.984375 226.613281 297.15625 227.027344 298.632812 Z M 122.519531 291.984375 C 123.898438 291.90625 124.621094 291.910156 125.332031 291.820312 C 138.769531 290.132812 152.207031 288.476562 165.632812 286.714844 C 170.679688 286.054688 171.191406 285.195312 170.414062 279.992188 C 170.386719 279.832031 170.335938 279.675781 170.3125 279.511719 C 168.894531 270.242188 166.492188 261.167969 164.707031 251.96875 C 164.496094 250.890625 164.730469 249.308594 163.632812 248.898438 C 162.285156 248.394531 161.578125 249.953125 160.792969 250.789062 C 151.636719 260.558594 142.519531 270.363281 133.40625 280.171875 C 129.917969 283.925781 126.457031 287.710938 122.519531 291.984375 Z M 329.769531 270.582031 C 329.867188 271.800781 329.863281 273.039062 330.089844 274.234375 C 331.292969 280.578125 334.402344 285.554688 340.777344 287.679688 C 346.609375 289.625 351.847656 288.015625 355.972656 283.652344 C 361.867188 277.414062 363.484375 270 360.429688 261.933594 C 356.113281 250.527344 341.964844 248.414062 334.339844 257.910156 C 331.375 261.605469 329.953125 265.863281 329.769531 270.582031 Z M 353.847656 137.578125 C 354.101562 137.675781 354.265625 137.804688 354.390625 137.773438 C 362.472656 135.835938 370.546875 133.863281 378.640625 131.964844 C 379.804688 131.691406 379.929688 131.035156 380.027344 130.054688 C 380.289062 127.457031 380.679688 124.875 380.984375 122.28125 C 381.324219 119.363281 382.042969 116.480469 381.945312 113.523438 C 381.84375 110.535156 380.914062 109.640625 378.0625 109.875 C 373.832031 110.226562 369.621094 110.855469 365.386719 111.109375 C 360.984375 111.371094 358.546875 113.722656 357.390625 117.757812 C 357.121094 118.695312 356.839844 119.632812 356.507812 120.550781 C 354.527344 126.070312 355.535156 132.035156 353.847656 137.578125 Z M 131.320312 295.78125 C 131.292969 295.902344 131.265625 296.023438 131.238281 296.144531 C 135.386719 296.515625 139.535156 296.882812 143.683594 297.257812 C 155.890625 298.359375 168.101562 299.445312 180.304688 300.566406 C 189.171875 301.382812 198.039062 302.253906 206.90625 303.066406 C 207.683594 303.140625 208.691406 303.6875 209.015625 302.222656 C 209.660156 299.328125 210.566406 296.503906 211.910156 293.625 C 202.519531 292.839844 193.410156 292.070312 184.300781 291.320312 C 178.296875 290.824219 172.308594 289.917969 166.28125 291.335938 C 163.90625 291.890625 161.433594 292.027344 159.003906 292.328125 C 149.773438 293.484375 140.546875 294.628906 131.320312 295.78125 Z M 295.9375 276.589844 C 297.769531 277.140625 298.429688 276.554688 298.152344 274.21875 C 297.296875 267.054688 297.914062 259.851562 298.28125 252.695312 C 298.777344 243.164062 300.082031 233.691406 301.644531 224.273438 C 301.898438 222.746094 301.789062 222.113281 300.011719 222.191406 C 297.816406 222.292969 295.585938 222.242188 293.414062 221.929688 C 291.597656 221.671875 291.210938 222.402344 291.027344 223.960938 C 289.523438 236.765625 287.984375 249.566406 286.382812 262.359375 C 286.140625 264.300781 286.207031 265.90625 287.78125 267.390625 C 288.964844 268.507812 289.296875 270.222656 289.726562 271.808594 C 290.113281 273.242188 288.9375 275.222656 290.355469 276.035156 C 291.570312 276.730469 293.375 276.394531 294.921875 276.515625 C 295.167969 276.53125 295.410156 276.550781 295.9375 276.589844 Z M 436.097656 191.855469 C 437.023438 192.246094 437.125 191.578125 437.117188 190.4375 C 437.109375 189.144531 437.152344 187.753906 437.613281 186.578125 C 438.308594 184.824219 437.625 184.574219 436.097656 184.335938 C 414.734375 180.976562 393.378906 177.554688 372.019531 174.164062 C 370.570312 173.933594 368.800781 173.199219 367.726562 173.753906 C 366.378906 174.453125 367.191406 176.550781 366.792969 177.992188 C 366.703125 178.308594 366.648438 178.632812 366.53125 178.933594 C 365.992188 180.324219 366.304688 180.855469 367.9375 181.097656 C 379.570312 182.808594 391.1875 184.628906 402.796875 186.46875 C 413.761719 188.207031 424.71875 190.011719 436.097656 191.855469 Z M 478.773438 235.539062 C 480.230469 238.105469 481.394531 240.035156 482.441406 242.027344 C 485.53125 247.917969 489.410156 253.445312 490.9375 260.0625 C 491.28125 261.550781 491.957031 260.820312 492.683594 260.535156 C 496.007812 259.21875 499.308594 257.828125 502.691406 256.683594 C 503.964844 256.253906 504.296875 255.707031 504.28125 254.460938 C 504.222656 250.222656 504.328125 245.980469 504.28125 241.742188 C 504.257812 239.730469 505.226562 236.992188 503.921875 235.914062 C 502.691406 234.898438 500.046875 235.550781 498.027344 235.546875 C 491.78125 235.523438 485.535156 235.539062 478.773438 235.539062 Z M 237.039062 222.148438 C 237.039062 222.257812 237.039062 222.371094 237.039062 222.480469 C 240.46875 222.480469 243.898438 222.5 247.328125 222.46875 C 248.035156 222.460938 248.792969 222.890625 249.253906 221.644531 C 251.089844 216.679688 253.03125 211.75 255.117188 206.886719 C 255.878906 205.109375 255.207031 205.03125 253.773438 205.039062 C 246.503906 205.082031 239.234375 205.101562 231.960938 205.054688 C 230.539062 205.046875 229.691406 205.523438 229.179688 206.859375 C 227.582031 211.042969 225.953125 215.214844 224.273438 219.367188 C 223.625 220.972656 224.15625 221.574219 225.777344 221.636719 C 229.53125 221.78125 233.285156 221.976562 237.039062 222.148438 Z M 236.292969 189.660156 C 238.40625 188.53125 240.363281 187.351562 242.453125 186.449219 C 243.691406 185.914062 244.304688 185.257812 244.472656 183.816406 C 245.117188 178.390625 245.945312 172.988281 246.699219 167.574219 C 247.050781 165.054688 247.398438 162.53125 247.765625 159.886719 C 242.414062 161.222656 237.476562 162.667969 232.449219 163.636719 C 229.203125 164.257812 227.308594 165.886719 225.984375 168.824219 C 221.503906 178.769531 216.964844 188.691406 212.246094 198.519531 C 210.410156 202.335938 210.292969 206.320312 210.042969 210.378906 C 210.601562 209.488281 211.023438 208.546875 211.40625 207.597656 C 215.316406 197.9375 219.25 188.285156 223.101562 178.601562 C 223.933594 176.515625 225.046875 175.09375 227.488281 175.066406 C 230.691406 175.027344 233.644531 175.820312 236.234375 177.6875 C 238.886719 179.601562 239.445312 181.683594 238.273438 184.734375 C 237.640625 186.386719 236.953125 188.015625 236.292969 189.660156 Z M 203.375 232.667969 C 203.929688 225.8125 204.394531 219.21875 205.023438 212.640625 C 205.46875 207.945312 205.175781 203.082031 207.1875 198.671875 C 212.292969 187.480469 217.527344 176.34375 222.734375 165.199219 C 224.175781 162.117188 226.597656 160.277344 229.941406 159.515625 C 235.585938 158.238281 241.199219 156.84375 246.832031 155.511719 C 247.445312 155.367188 248.105469 155.355469 248.429688 154.648438 C 247.789062 154.097656 247.144531 154.445312 246.570312 154.589844 C 239.222656 156.445312 231.910156 158.425781 224.539062 160.171875 C 221.121094 160.980469 218.980469 162.890625 217.582031 166.039062 C 212.984375 176.382812 208.273438 186.679688 203.640625 197.011719 C 202.605469 199.320312 201.792969 201.703125 201.585938 204.269531 C 200.972656 211.925781 200.308594 219.574219 199.667969 227.226562 C 199.550781 228.609375 198.953125 230.1875 199.429688 231.324219 C 200.042969 232.792969 202.125 231.484375 203.375 232.667969 Z M 218.046875 223.222656 C 219.96875 218.28125 221.8125 213.410156 223.753906 208.582031 C 227.066406 200.347656 230.460938 192.144531 233.75 183.898438 C 234.054688 183.136719 235.007812 182.1875 233.742188 181.3125 C 232.089844 180.160156 230.238281 179.300781 228.273438 179.546875 C 226.652344 179.75 226.730469 181.652344 226.238281 182.847656 C 221.082031 195.414062 215.996094 208.003906 210.816406 220.765625 C 213.414062 221.105469 215.867188 221.636719 218.046875 223.222656 Z M 419.96875 167.550781 C 419.863281 167.550781 419.761719 167.546875 419.65625 167.546875 C 419.65625 170.238281 419.753906 172.933594 419.613281 175.617188 C 419.542969 176.890625 419.878906 177.382812 421.117188 177.507812 C 422.898438 177.691406 424.699219 177.878906 426.433594 178.300781 C 427.714844 178.613281 428.328125 178.253906 428.945312 177.148438 C 431.882812 171.890625 434.875 166.660156 437.914062 161.460938 C 438.683594 160.144531 438.554688 159.53125 437.183594 158.636719 C 433.160156 156.003906 429.238281 154.515625 424.296875 156.441406 C 420.550781 157.90625 420.40625 157.496094 420.265625 161.683594 C 420.199219 163.640625 420.070312 165.59375 419.96875 167.550781 Z M 268.636719 241.257812 C 268.773438 240.417969 268.878906 239.949219 268.925781 239.476562 C 269.855469 229.878906 270.75 220.28125 271.714844 210.691406 C 272.113281 206.730469 272.058594 202.691406 273.777344 198.9375 C 276.21875 193.605469 278.484375 188.1875 280.988281 182.882812 C 282.0625 180.605469 283.039062 178.570312 280.644531 176.542969 C 280.316406 176.269531 280.265625 175.535156 279.707031 175.578125 C 279.144531 175.625 279.136719 176.265625 278.941406 176.707031 C 275.945312 183.398438 272.917969 190.074219 269.925781 196.769531 C 268.792969 199.300781 267.707031 201.847656 267.457031 204.667969 C 266.488281 215.574219 265.503906 226.476562 264.511719 237.378906 C 264.445312 238.082031 264.292969 238.746094 265.382812 238.570312 C 267.21875 238.269531 267.992188 239.464844 268.636719 241.257812 Z M 370.492188 169.230469 C 370.515625 169.335938 370.539062 169.441406 370.5625 169.542969 C 373.378906 169.980469 376.199219 170.398438 379.011719 170.855469 C 387.953125 172.300781 396.894531 173.765625 405.839844 175.203125 C 406.453125 175.300781 407.453125 175.988281 407.46875 174.636719 C 407.519531 169.945312 407.488281 165.253906 407.488281 160.632812 C 395.320312 163.460938 382.90625 166.34375 370.492188 169.230469 Z M 448.980469 231.640625 C 448.933594 225.214844 444.121094 220.023438 438.199219 220.011719 C 431.769531 220 426.386719 225.773438 426.496094 232.554688 C 426.605469 239.210938 431.535156 244.371094 437.730469 244.320312 C 443.976562 244.269531 449.035156 238.570312 448.980469 231.640625 Z M 262.449219 86.46875 C 263.773438 85.648438 264.320312 84.636719 264.90625 83.699219 C 267.921875 78.859375 270.9375 74.019531 273.847656 69.121094 C 274.699219 67.683594 275.601562 66.769531 277.382812 66.570312 C 283.457031 65.890625 289.511719 65.019531 295.582031 64.296875 C 296.738281 64.160156 297.246094 64.011719 297.15625 62.59375 C 296.929688 58.898438 297.03125 58.894531 293.292969 59.261719 C 292.96875 59.292969 292.640625 59.296875 292.316406 59.332031 C 285.144531 60.160156 277.972656 60.992188 270.75 61.832031 C 271.40625 64.4375 273.019531 66.773438 271.128906 69.246094 C 269.242188 71.71875 267.730469 74.414062 266.449219 77.242188 C 266.066406 78.082031 265.648438 79.03125 264.722656 79.171875 C 262.894531 79.445312 262.929688 80.691406 262.863281 82.03125 C 262.792969 83.414062 262.609375 84.789062 262.449219 86.46875 Z M 509.316406 212.464844 C 509.066406 212.464844 508.816406 212.464844 508.566406 212.460938 C 508.566406 206.992188 508.519531 201.523438 508.59375 196.054688 C 508.617188 194.46875 508.367188 193.691406 506.488281 193.820312 C 504.832031 193.929688 504.085938 194.132812 504.160156 196.125 C 504.574219 207.140625 504.878906 218.164062 505.070312 229.1875 C 505.101562 231.046875 505.90625 231.019531 507.257812 231.039062 C 508.683594 231.0625 509.417969 230.933594 509.367188 229.121094 C 509.222656 223.570312 509.316406 218.015625 509.316406 212.464844 Z M 250.09375 226.867188 C 244.148438 226.671875 238.472656 226.496094 232.800781 226.289062 C 232.035156 226.261719 231.878906 226.722656 231.667969 227.289062 C 229.910156 232.027344 230.445312 232.84375 235.382812 232.890625 C 239.914062 232.933594 239.960938 232.917969 241.484375 237.472656 C 241.8125 238.457031 242.296875 238.679688 243.203125 238.765625 C 244.128906 238.855469 244.699219 238.675781 245.109375 237.761719 C 246.683594 234.222656 248.324219 230.71875 250.09375 226.867188 Z M 432.679688 179.363281 C 434.988281 179.734375 436.769531 179.941406 438.515625 180.328125 C 439.734375 180.597656 440.386719 180.332031 441.011719 179.164062 C 443.078125 175.289062 445.304688 171.5 447.457031 167.671875 C 449.15625 164.65625 449.148438 164.65625 446.109375 163.132812 C 442.847656 161.5 442.847656 161.5 440.992188 164.761719 C 438.265625 169.550781 435.539062 174.339844 432.679688 179.363281 Z M 271.960938 181.035156 C 270.601562 180.777344 270.375 181.367188 270.066406 182.117188 C 264.800781 194.929688 259.503906 207.730469 254.1875 220.519531 C 253.835938 221.367188 253.753906 221.917969 254.847656 222.023438 C 256.898438 222.226562 258.597656 223.332031 260.335938 224.308594 C 262.058594 220.824219 262.136719 217.226562 262.386719 213.660156 C 262.902344 206.339844 263.132812 198.996094 266.835938 192.285156 C 268.792969 188.742188 270.21875 184.910156 271.960938 181.035156 Z M 508.644531 253.402344 C 512.558594 249.761719 517.128906 247.535156 516.542969 241.21875 C 516 235.332031 516.53125 235.285156 510.519531 235.570312 C 510.355469 235.578125 510.191406 235.59375 510.03125 235.582031 C 509.011719 235.519531 508.609375 235.921875 508.621094 237.007812 C 508.671875 242.292969 508.644531 247.582031 508.644531 253.402344 Z M 160.3125 242.671875 C 159.945312 242.972656 159.753906 243.101562 159.605469 243.261719 C 145.246094 258.898438 130.960938 274.605469 116.246094 289.910156 C 115.363281 290.824219 114.839844 291.902344 114.621094 293.132812 C 114.539062 293.605469 113.855469 294.335938 114.792969 294.507812 C 115.472656 294.628906 116.625 294.871094 116.726562 293.660156 C 117.027344 290.128906 119.652344 288.082031 121.777344 285.796875 C 134.222656 272.394531 146.746094 259.0625 159.257812 245.71875 C 160 244.925781 160.710938 244.171875 160.3125 242.671875 Z M 217.121094 233.933594 C 216.863281 237.84375 216.863281 237.84375 220.765625 237.929688 C 221.5 237.949219 222.234375 237.980469 222.964844 237.996094 C 223.359375 238.003906 224.027344 238.078125 224.011719 237.671875 C 223.878906 234.734375 226.992188 233.121094 226.949219 230.195312 C 226.929688 228.917969 227.953125 227.261719 227.4375 226.449219 C 226.769531 225.390625 224.859375 226.21875 223.558594 225.746094 C 222.410156 225.332031 221.765625 225.628906 221.492188 226.925781 C 221.242188 228.125 220.425781 229.078125 219.121094 229 C 217.34375 228.890625 217.085938 229.863281 217.117188 231.246094 C 217.136719 232.140625 217.121094 233.039062 217.121094 233.933594 Z M 433.449219 286.140625 C 440.332031 285.785156 446.523438 285.464844 452.460938 285.160156 C 449.265625 279.777344 444.425781 278.691406 438.730469 279.535156 C 437.324219 279.742188 436.578125 279.921875 436.3125 281.464844 C 436.035156 283.0625 435.121094 284.453125 433.449219 286.140625 Z M 309.898438 71.050781 C 312.8125 71.015625 312.796875 71.019531 311.945312 68.304688 C 311.578125 67.144531 311.253906 65.96875 310.972656 64.785156 C 310.5625 63.050781 310.746094 60.75 309.683594 59.703125 C 308.410156 58.449219 306.128906 59.9375 304.300781 59.734375 C 301.667969 59.4375 301.390625 60.832031 301.601562 62.910156 C 301.691406 63.8125 302.007812 64.429688 302.726562 64.914062 C 304.644531 66.203125 306.230469 67.839844 307.410156 69.816406 C 308.042969 70.875 308.847656 71.300781 309.898438 71.050781 Z M 396.375 288.1875 C 394.964844 286.707031 393.5625 285.992188 393.386719 284.757812 C 392.765625 280.355469 389.761719 280.730469 386.652344 281.09375 C 385.84375 281.183594 385.023438 281.144531 384.207031 281.160156 C 383.5625 281.175781 383.152344 281.398438 383.078125 282.136719 C 382.816406 284.636719 381.46875 286.59375 379.773438 288.1875 C 385.136719 288.1875 390.414062 288.1875 396.375 288.1875 Z M 422.636719 286.515625 C 421.757812 285.433594 420.648438 284.664062 420.425781 283.6875 C 419.535156 279.847656 416.910156 279.742188 413.84375 280.207031 C 412.882812 280.351562 411.890625 280.347656 410.914062 280.371094 C 410.285156 280.386719 409.757812 280.511719 409.671875 281.242188 C 409.40625 283.546875 408.203125 285.429688 406.632812 287.40625 C 412.144531 287.101562 417.304688 286.8125 422.636719 286.515625 Z M 255.113281 106.09375 C 253.496094 106.292969 252.800781 107.179688 252.574219 108.503906 C 252.3125 110.03125 252.074219 111.558594 251.847656 113.089844 C 250.777344 120.261719 249.695312 127.429688 248.667969 134.605469 C 248.394531 136.515625 248.332031 138.4375 250.328125 139.972656 C 251.945312 128.519531 253.523438 117.347656 255.113281 106.09375 Z M 265.558594 63.386719 C 263.214844 63.703125 261.199219 63.992188 259.179688 64.246094 C 258.5625 64.320312 258.328125 64.671875 258.375 65.222656 C 258.617188 68.222656 258.644531 71.25 259.410156 74.1875 C 259.648438 75.105469 260.347656 75.429688 261.242188 75.511719 C 262.023438 75.582031 262.460938 75.195312 262.753906 74.550781 C 263.890625 72.023438 265.246094 69.628906 266.847656 67.355469 C 267.800781 66.003906 266.636719 63.410156 265.558594 63.386719 Z M 306.390625 138.621094 C 307.898438 126.714844 309.359375 115.203125 310.84375 103.511719 C 309.046875 103.984375 308.722656 105.222656 308.539062 106.535156 C 307.265625 115.644531 306 124.753906 304.738281 133.867188 C 304.507812 135.527344 304.695312 137.074219 306.390625 138.621094 Z M 454.984375 149.453125 C 453.34375 149.855469 451.878906 150.28125 450.386719 150.5625 C 448.882812 150.851562 447.703125 151.28125 447.265625 153.039062 C 446.847656 154.707031 444.523438 156.1875 445.347656 157.671875 C 446.070312 158.976562 448.359375 159.390625 449.914062 160.269531 C 450.910156 160.835938 451.382812 160.714844 451.894531 159.585938 C 453.324219 156.414062 454.558594 153.207031 454.984375 149.453125 Z M 232.160156 200.363281 C 235.449219 200.363281 238.363281 200.347656 241.277344 200.375 C 242.1875 200.386719 242.5625 200.058594 242.648438 199.117188 C 242.894531 196.390625 243.234375 193.667969 243.574219 190.625 C 239.140625 193.285156 235.25 196.125 232.160156 200.363281 Z M 369.480469 289.152344 C 367.378906 287.316406 366.210938 285.152344 365.523438 282.652344 C 364.984375 280.703125 363.414062 281.289062 362.84375 282.140625 C 360.925781 285.007812 358.683594 287.527344 355.691406 289.789062 C 360.574219 289.5625 365.027344 289.355469 369.480469 289.152344 Z M 299.902344 204.195312 C 299.480469 204.140625 299.292969 204.378906 299.097656 204.660156 C 297.183594 207.390625 295.320312 210.152344 293.855469 213.15625 C 291.617188 217.734375 291.640625 217.683594 296.730469 217.910156 C 298.105469 217.972656 298.550781 217.652344 298.664062 216.261719 C 298.988281 212.230469 299.476562 208.210938 299.902344 204.195312 Z M 362.582031 175.039062 C 362.820312 174.257812 362.78125 173.636719 361.675781 173.617188 C 359.410156 173.574219 357.277344 172.441406 354.953125 172.839844 C 352.867188 173.199219 352.878906 175.0625 352.695312 176.410156 C 352.511719 177.777344 354.121094 177.226562 354.898438 177.441406 C 356.21875 177.8125 357.617188 177.878906 358.984375 178.066406 C 362.328125 178.527344 362.332031 178.527344 362.582031 175.039062 Z M 278.019531 277.710938 C 279.179688 282.152344 279.550781 282.269531 282.921875 279.425781 C 283.109375 279.265625 283.292969 279.101562 283.460938 278.925781 C 285.460938 276.863281 286.019531 273.378906 284.78125 270.710938 C 283.773438 268.546875 281.09375 267.144531 278.464844 267.414062 C 275.492188 267.714844 275.050781 268.53125 276.433594 271.183594 C 279.035156 269.210938 281.027344 268.929688 282.859375 270.351562 C 284.566406 271.683594 284.910156 273.398438 284.070312 275.371094 C 283.101562 277.652344 281.769531 278.183594 278.019531 277.710938 Z M 465.84375 265.4375 C 463.890625 265.488281 462.199219 267.53125 462.308594 269.703125 C 462.40625 271.746094 464.011719 273.328125 465.914062 273.261719 C 467.890625 273.191406 469.441406 271.453125 469.4375 269.304688 C 469.429688 267.179688 467.765625 265.386719 465.84375 265.4375 Z M 315.882812 270.828125 C 312.335938 270.539062 312.453125 270.53125 312.699219 274.003906 C 312.808594 275.5625 313.355469 275.835938 314.746094 275.773438 C 316.105469 275.710938 317.480469 275.996094 318.851562 276.089844 C 319.425781 276.125 320.082031 276.449219 320.199219 275.324219 C 320.539062 271.957031 319.980469 271.191406 316.609375 270.886719 C 316.363281 270.863281 316.125 270.847656 315.882812 270.828125 Z M 430.390625 115.792969 C 426.925781 116.589844 423.546875 117.488281 420.121094 118.105469 C 418.273438 118.4375 418.777344 119.566406 418.859375 120.628906 C 418.992188 122.378906 420.085938 121.371094 420.796875 121.230469 C 422.386719 120.914062 423.949219 120.382812 425.550781 120.171875 C 428.128906 119.832031 430 118.808594 430.390625 115.792969 Z M 282.253906 159.03125 C 278.414062 159.519531 273.835938 165.871094 274.605469 169.414062 C 274.78125 170.210938 275.308594 170.828125 276.003906 170.941406 C 276.808594 171.078125 276.882812 170.148438 277.125 169.609375 C 278.714844 166.0625 280.101562 162.417969 282.253906 159.03125 Z M 431.277344 195.679688 C 431.253906 195.566406 431.230469 195.453125 431.207031 195.339844 C 428.566406 194.945312 425.929688 194.53125 423.285156 194.164062 C 419.042969 193.582031 419.035156 193.597656 418.621094 197.742188 C 418.597656 197.957031 418.726562 198.1875 418.804688 198.503906 C 422.996094 197.554688 427.136719 196.617188 431.277344 195.679688 Z M 206.695312 237.449219 C 208.078125 237.171875 209.464844 238.332031 210.167969 236.71875 C 211.554688 233.527344 212.769531 230.265625 214.113281 227.054688 C 214.5625 225.972656 213.808594 225.867188 213.15625 225.53125 C 212.390625 225.132812 212.0625 225.308594 211.71875 226.101562 C 210.128906 229.804688 208.464844 233.476562 206.695312 237.449219 Z M 249.308594 238.789062 C 251.136719 239.453125 252.304688 239.089844 253.03125 237.085938 C 254.023438 234.347656 255.273438 231.699219 256.480469 229.039062 C 256.902344 228.113281 257.085938 227.53125 255.914062 226.953125 C 254.585938 226.300781 254.550781 227.347656 254.257812 227.980469 C 252.585938 231.558594 250.964844 235.160156 249.308594 238.789062 Z M 315.035156 258.871094 C 316.179688 258.929688 317.148438 258.941406 318.113281 259.042969 C 319.082031 259.144531 320.035156 259.363281 321.003906 259.472656 C 321.867188 259.566406 324.507812 256.347656 324.191406 255.597656 C 324.117188 255.414062 323.855469 255.277344 323.652344 255.191406 C 319.546875 253.429688 316.832031 254.515625 315.035156 258.871094 Z M 447.054688 114.992188 C 442.691406 111.742188 437.125 113.121094 434.472656 117.980469 C 438.707031 116.976562 442.679688 116.03125 447.054688 114.992188 Z M 405.070312 280.652344 C 402.570312 280.652344 400.292969 280.679688 398.015625 280.640625 C 396.371094 280.617188 396.402344 281.328125 397.191406 282.378906 C 398.21875 283.746094 399.484375 284.746094 401.320312 284.496094 C 403.433594 284.203125 404.53125 282.832031 405.070312 280.652344 Z M 374.316406 285.515625 C 376.019531 285.515625 377.367188 284.464844 378.175781 282.691406 C 378.664062 281.621094 378.492188 281.226562 377.277344 281.300781 C 375.660156 281.398438 374.035156 281.367188 372.421875 281.492188 C 371.679688 281.550781 370.5625 280.996094 370.253906 281.90625 C 369.925781 282.867188 370.757812 283.714844 371.464844 284.375 C 372.253906 285.109375 373.191406 285.574219 374.316406 285.515625 Z M 313.6875 82.804688 C 316 75.867188 315.375 74.773438 309.667969 75.53125 C 309.609375 75.539062 309.5625 75.621094 309.398438 75.765625 C 310.800781 78.066406 312.21875 80.390625 313.6875 82.804688 Z M 423.402344 279.757812 C 424.613281 282.304688 426.003906 283.429688 428.046875 283.457031 C 429.734375 283.476562 430.898438 282.527344 431.65625 281.015625 C 432.121094 280.085938 432.003906 279.71875 430.886719 279.742188 C 428.546875 279.789062 426.207031 279.757812 423.402344 279.757812 Z M 489.679688 147.773438 C 489.679688 145.867188 489.660156 144.101562 489.691406 142.335938 C 489.703125 141.683594 489.621094 141.136719 488.828125 141.21875 C 488.082031 141.292969 487.128906 140.765625 486.660156 141.78125 C 485.78125 143.675781 487.191406 146.742188 489.679688 147.773438 Z M 317.605469 286.203125 C 318.820312 289.035156 320.527344 289.515625 325.523438 288.769531 C 323.636719 285.410156 320.316406 287.394531 317.605469 286.203125 Z M 232.886719 238.679688 C 232.886719 238.71875 232.886719 238.757812 232.886719 238.800781 C 233.53125 238.800781 234.179688 238.835938 234.820312 238.789062 C 235.367188 238.746094 236.207031 239.234375 236.28125 238.132812 C 236.34375 237.175781 235.632812 237.148438 234.984375 237.125 C 233.613281 237.085938 232.242188 237.117188 230.871094 237.050781 C 230.050781 237.011719 229.335938 237.101562 229.429688 238.117188 C 229.527344 239.207031 230.429688 238.570312 230.957031 238.65625 C 231.585938 238.757812 232.242188 238.679688 232.886719 238.679688 Z M 256.816406 239.480469 C 258.117188 238.832031 259.644531 239.808594 259.863281 238.457031 C 260.195312 236.433594 260.726562 234.320312 260.207031 231.84375 C 259.070312 234.410156 258.097656 236.59375 256.816406 239.480469 Z M 195.265625 237.679688 C 196.136719 236.753906 198.191406 238.886719 198.347656 236.847656 C 198.453125 235.472656 196.363281 236.183594 195.316406 236.140625 C 194.199219 236.089844 192.171875 235.015625 192.078125 236.824219 C 192.003906 238.199219 194.074219 237.082031 195.265625 237.679688 Z M 442.414062 152.40625 C 440.65625 152.902344 439.246094 153.300781 437.71875 153.734375 C 441.054688 155.992188 441.054688 155.992188 442.414062 152.40625 Z M 442.414062 152.40625 " fill-opacity="1" fill-rule="evenodd"/></g><path fill="#b91c1c" d="M 480.714844 122.605469 C 480.683594 126.027344 477.859375 128.90625 474.527344 128.914062 C 471.144531 128.917969 468.324219 125.933594 468.324219 122.34375 C 468.320312 118.652344 471.085938 115.832031 474.59375 115.945312 C 478.058594 116.058594 480.75 118.988281 480.714844 122.605469 Z M 476.339844 122.554688 C 476.34375 121.308594 475.9375 120.304688 474.648438 120.214844 C 473.316406 120.121094 472.839844 121.113281 472.75 122.289062 C 472.65625 123.527344 473.179688 124.429688 474.445312 124.542969 C 475.816406 124.664062 476.230469 123.667969 476.339844 122.554688 Z M 476.339844 122.554688 " fill-opacity="1" fill-rule="evenodd"/><path fill="#b91c1c" d="M 445.25 188.964844 C 445.234375 185.28125 447.722656 182.5625 451.15625 182.511719 C 454.515625 182.460938 457.503906 185.476562 457.535156 188.945312 C 457.566406 192.441406 454.664062 195.378906 451.199219 195.363281 C 447.773438 195.34375 445.269531 192.652344 445.25 188.964844 Z M 451.175781 186.761719 C 449.78125 187.042969 449.335938 188.046875 449.394531 189.277344 C 449.445312 190.40625 450.203125 191.152344 451.304688 191.078125 C 452.539062 190.992188 453.136719 190.027344 453.082031 188.847656 C 453.027344 187.710938 452.527344 186.800781 451.175781 186.761719 Z M 451.175781 186.761719 " fill-opacity="1" fill-rule="evenodd"/><path fill="#b91c1c" d="M 341.308594 180.644531 C 338.105469 180.601562 335.496094 177.871094 335.53125 174.601562 C 335.566406 171.476562 337.886719 169.167969 340.953125 169.210938 C 344.132812 169.257812 346.777344 172.03125 346.71875 175.265625 C 346.664062 178.421875 344.382812 180.6875 341.308594 180.644531 Z M 342.464844 174.964844 C 342.457031 174.136719 342.066406 173.460938 341.261719 173.410156 C 340.289062 173.351562 339.875 174.085938 339.882812 174.996094 C 339.894531 175.863281 340.5 176.359375 341.253906 176.40625 C 342.144531 176.464844 342.441406 175.769531 342.464844 174.964844 Z M 342.464844 174.964844 " fill-opacity="1" fill-rule="evenodd"/><path fill="#b91c1c" d="M 345.882812 278.765625 C 341.375 278.828125 337.855469 275.222656 337.757812 270.449219 C 337.652344 265.308594 341.050781 261.453125 345.695312 261.441406 C 350.21875 261.429688 353.96875 265.316406 353.957031 270.011719 C 353.945312 274.839844 350.382812 278.703125 345.882812 278.765625 Z M 346.074219 265.941406 C 344.140625 265.867188 342.234375 267.867188 342.097656 270.109375 C 341.964844 272.261719 343.628906 274.175781 345.667969 274.214844 C 347.652344 274.253906 349.335938 272.492188 349.460938 270.246094 C 349.589844 268.007812 348.015625 266.011719 346.074219 265.941406 Z M 346.074219 265.941406 " fill-opacity="1" fill-rule="evenodd"/><path fill="#b91c1c" d="M 438.53125 240.429688 C 434.207031 240.464844 430.75 236.941406 430.691406 232.445312 C 430.632812 227.738281 433.925781 224.160156 438.398438 224.074219 C 442.710938 223.984375 446.199219 227.515625 446.257812 232.023438 C 446.320312 236.625 442.851562 240.394531 438.53125 240.429688 Z M 438.546875 228.453125 C 436.65625 228.429688 435.050781 230.214844 435.039062 232.347656 C 435.03125 234.402344 436.535156 236.023438 438.4375 236 C 440.226562 235.976562 441.777344 234.269531 441.839844 232.25 C 441.902344 230.257812 440.355469 228.476562 438.546875 228.453125 Z M 438.546875 228.453125 " fill-opacity="1" fill-rule="evenodd"/></svg>